<svg xmlns="http://www.w3.org/2000/svg" viewBox="0 0 1000 1000"><defs><style>.cls-1{fill:#253c26;}.cls-2{fill:#466348;}.cls-3{fill:#4a784c;}.cls-4{fill:#266f38;}.cls-5{fill:#629c86;}.cls-6{fill:#69946b;}</style></defs><g id="レイヤー_1" data-name="レイヤー 1"><path class="cls-1" d="M417,597.35c0,5.93-.16,11.88-.31,17.81-.05,4.73,0,9.47-.19,14.2-.44,9.51-1.13,19-1.17,28.54a311.64,311.64,0,0,0,.8,31.47,68.53,68.53,0,0,1,0,9c-.37,3.76-1.14,7.48-1.83,11.2-2.24,12.15-3.64,24.42-5,36.69-.9,6.49-1.87,13-2.39,19.5a120.28,120.28,0,0,0-1.16,15.51c-.06,5.48,0,11-.25,16.45-.2,3-.37,6.05-1.55,8.83a19.12,19.12,0,0,1-4.53,5.89,10.75,10.75,0,0,1-5.67,2.49c-1.06,0-2.21-.78-2-2,.57-2.68,1.7-5.24,2.32-7.92a118.89,118.89,0,0,0,3.16-19.37c.54-6.76,1.3-13.51,1.45-20.29.11-7.39.77-14.76,1-22.14.4-12.91,1.22-25.81,1.3-38.72.17-8.22.73-16.44.7-24.66,0-3.73.21-7.47,0-11.2-.73-8.32-1.54-16.64-2-25-.67-10.13-2.25-20.17-3-30.28a247.46,247.46,0,0,1,1.19-28.93c.35-4.37.67-8.76.81-13.15a38.55,38.55,0,0,0,.1-6c-.32-2.37-.71-4.76-.85-7.16-.1-3.5.06-7,.27-10.51.78-11.61,2.65-23.13,3.47-34.75a179.88,179.88,0,0,0-.3-18.86c-.19-6.16-.34-12.34-.79-18.5-.79-15.15-4.28-29.75-8.27-44.34-3.58-11.56-7.2-23.15-9.53-35-2.5-11.25-1-22.87-.13-34.22l12.63.18c.82.45,1.73,1,2.53,1.46,5.68,3.42,7.8,10.31,8.11,16.6a119.25,119.25,0,0,1,.31,13.1c-.33,12.88-.07,25.79-1,38.66a204.94,204.94,0,0,0,.06,26.92c.72,8.89,2.36,17.7,3.23,26.57,1.17,12.18,1.11,24.46,2.18,36.64.82,8.63,2.93,17.09,4,25.67,1.24,10,1.39,20,1.54,30C416.47,584.29,417.08,590.81,417,597.35Z"/><path class="cls-1" d="M583.62,594.57a13,13,0,0,1-2,5.72c-1.88,2.49-4.17,4.68-6.21,7-7,7.89-14.56,15.25-20.76,23.79-4,5.16-8.14,10.2-11.62,15.71-5.5,8.67-10.79,17.51-17.21,25.55-2.84,3.9-5.36,8.09-8.24,12-2.46,3.42-5.24,6.64-7.68,10.09-6,8.88-11.83,17.95-17,27.36-3.58,5.71-6.62,11.74-9.95,17.6-3.15,5.25-6.61,10.32-9.95,15.46-2.47,3.93-4.69,8-7.5,11.74-3.3,4.58-7.16,8.76-10.34,13.42-4.7,7.65-9.23,15.42-13.3,23.42-3,5.51-5.53,11.28-8.56,16.78a82.19,82.19,0,0,1-7,10.15c-1.75,2.26-3.42,4.58-5.14,6.86a24.64,24.64,0,0,1-5.85,6.07A64.4,64.4,0,0,1,404,848.48c-1.72.49-3.58,1.58-5.35.82-1.8-1-1.85-3.34-2.2-5.18a63.4,63.4,0,0,1-1.26-8.55,15.37,15.37,0,0,1,3.55-9.86c3.76-4.91,7.58-9.78,11.66-14.43,3.25-3.92,6.23-8.06,9.2-12.2,4.68-7,10.37-13.21,14.9-20.28,2.18-3.41,4.36-6.82,6.8-10,3.31-4.38,6.83-8.62,9.86-13.2,4.64-7.2,9.27-14.43,13.45-21.91,2.21-4,3.66-8.4,6.25-12.19,3.48-5.06,7.75-9.54,11.54-14.37,4.16-5.1,7.92-10.52,11.85-15.8,3.26-4.5,7.11-8.55,10.29-13.12,2.39-3.3,4.46-6.83,6.62-10.29s4.18-6.55,6-10c2.68-4.88,5-10,7.87-14.74,3.36-5.08,7.25-9.79,10.66-14.83s6.47-10.38,10.13-15.26a98.62,98.62,0,0,1,9.65-11,65.27,65.27,0,0,1,11.76-9.66,36.42,36.42,0,0,1,10.47-3.75Z"/></g><g id="レイヤー_6" data-name="レイヤー 6"><path class="cls-2" d="M579.18,350.59a28.21,28.21,0,0,1-.32,3.89,6.87,6.87,0,0,1-.63,2.45c-2.47,3.16-6.63.44-8.64-1.89a77.09,77.09,0,0,0-13.84-12.55c-9.48-6.59-18.67-13.92-29.48-18.27-6.17-2.52-12.85-3.39-19.39-4.44-8.65-1.36-17.34-2.52-26.08-3.1a25.27,25.27,0,0,0,12.47,9.51c6.89,2.32,14.23,2.79,21.36,4a82.36,82.36,0,0,1,24,7.29,75,75,0,0,1,20,14.52c4,3.85,8,7.81,11.05,12.54,5.19,8.63,5.64,19.32,4.06,29.05A32.53,32.53,0,0,1,567.57,408c-1.66,2-3.68,3.75-5.43,5.7a41.47,41.47,0,0,1-3.41,3.35,9.06,9.06,0,0,1-3.52,2.18,8.33,8.33,0,0,1-6.24-1.49,24,24,0,0,1-3.18-2.95c-2.71-2.82-5.63-5.44-8.34-8.27-4.56-4.9-8.9-10-13-15.29s-8-11-12.21-16.3c-3-3.56-6-7.07-9.14-10.53a46.81,46.81,0,0,0-5.39-4.76,77.58,77.58,0,0,0-7.6-5.36,80.73,80.73,0,0,0-16.9-8,27.76,27.76,0,0,0-5.69-1.76,25.78,25.78,0,0,0-6.77.67c1.72,2.66,3.37,5.42,5.33,7.91,2.56,3.06,5.33,6,7.6,9.27,3.31,4.49,6.18,9.27,9.28,13.89,4.84,6.49,8.92,13.5,13.47,20.18a187.69,187.69,0,0,1,12.2,18.72,155.81,155.81,0,0,1,12.94,26.62c2.57,7.39,3.61,15.2,5.6,22.75a30.66,30.66,0,0,1,1.12,6.71,14.2,14.2,0,0,1-2.68,7.07c-1.66,2.11-4.06,3.48-6.29,4.9a82.7,82.7,0,0,0-7.92,5.74c-4.38,3.53-8.26,7.7-13,10.77-2.07,1.37-4.26,2.53-6.41,3.77a19,19,0,0,1-4,2h0a8.27,8.27,0,0,1-3,2.11c-1.11.65-2.26,1.24-3.41,1.81a22.74,22.74,0,0,0-3.43,2.49c-4,3.34-7.77,6.93-11.54,10.49-1.73,1.48-3.31,3.36-5.56,4-4.46,1.42-9.12,2.15-13.53,3.73-1.89.62-3.75,1.33-5.62,2-3,1.33-4.12-.14-4.45-3.1-.21-4.33.43-8.67.1-13-.28-5.52-1.39-10.95-1.84-16.45-.41-4-.62-8-.7-12a98.88,98.88,0,0,0-.43-9.89c-.64-4.75-2.23-9.31-3.6-13.88a139.09,139.09,0,0,1-3.27-14.13c-1.05-5.74-1.53-11.57-2.57-17.32s-2.56-11.58-4.2-17.27a99.43,99.43,0,0,0-4.13-10.94c-2-3.83-4.17-7.57-6.5-11.2A43.47,43.47,0,0,0,399.49,382c-3.48-2.7-7.8-4.67-10.14-8.56-1.88,7-.88,14.26-1.23,21.38a96,96,0,0,1,5.56,11.4c3,6.11,6.12,12.13,9.21,18.18,2.13,4.14,5.15,7.72,7.59,11.67s4.13,8.39,5.57,12.83c2.35,6.64,4.58,13.33,6.54,20.09a109.3,109.3,0,0,1,4,16,127.33,127.33,0,0,1,1,13.94,54.46,54.46,0,0,1-.78,12.94c-1,5.35-1.7,10.74-2.55,16.1-.12.88-.26,1.77-.35,2.66a6.59,6.59,0,0,1-.64,2.79c-2.2,3.81-6.27,6.27-10.34,7.67-5.14,1.56-10.65,1.31-15.9.46-2.24,2.72-5.39,5.73-9.19,5.23-1.2-.2-2.79-.33-3.5-1.44-.4-1.24,0-2.59,0-3.86a67.35,67.35,0,0,1,.89-6.95c.6-3.79.82-7.63,1.18-11.44.4-5.56.16-11.15.35-16.71a13.23,13.23,0,0,0-.36-3.76c-.31-1.75-.56-3.55-.79-5.31-.79-6.17-2.93-12.08-3.85-18.23a74.33,74.33,0,0,1-.35-10c0-1.09.07-2.2.13-3.29a6,6,0,0,0,0-2.19c-.85-3.72-1.44-7.53-2.82-11.1a78.29,78.29,0,0,0-3.75-7.64c-1.79-3.57-3.88-7-5.43-10.7-1.08,2.16-2.58,4.1-3.57,6.3a23.54,23.54,0,0,0-1.62,6.12,24.74,24.74,0,0,0-.17,7.34c.38,2.54,1.29,5,1.82,7.5a111.25,111.25,0,0,0,2.87,11.37,76.61,76.61,0,0,1,2.83,15.54c.28,5,.89,9.92,1.59,14.85,1.51,9.42,2.67,18.95,2.36,28.5-.09,6.14-.68,12.38-2.95,18.13a9.05,9.05,0,0,1-2.17,3.26,38.84,38.84,0,0,1-4.21,3.79,49.65,49.65,0,0,1-5,4c-.66.43-1.39.75-2.05,1.19-.87.58-1.7,1.25-2.61,1.78a62,62,0,0,1-5.93,2.56,26.11,26.11,0,0,0-7.35,3.19c-1.46.82-2.87,1.72-4.26,2.64a19.11,19.11,0,0,0-2.75,2c-.79.75-1.51,1.59-2.25,2.38a2.81,2.81,0,0,1-2,1.12c-.79-.1-1.32-.85-1.89-1.34a43.92,43.92,0,0,1-6.52-7.44c-2.29-3.23-4.15-6.87-7.16-9.52s-6.59-4.52-9.4-7.37c-3.79-3.6-6.54-8.07-9.72-12.18-1.42-1.91-2.68-3.94-4.05-5.88a22.49,22.49,0,0,1-2.89-4.76,6.21,6.21,0,0,1-.55-4c.32-1.92.81-3.82,1.2-5.73a6.75,6.75,0,0,1,1.61-3.87c2.95-3,6.65-5.07,9.87-7.75,2.56-2.06,4.48-4.76,6.53-7.3,2-2.32,4.52-4.15,6.5-6.49a20.49,20.49,0,0,0,3.43-5.9c1.35-3.15,2.39-6.42,3.64-9.61.65-1.75,1.52-3.43,2.23-5.16a73.32,73.32,0,0,0,2.42-7.71c-3,.2-6.21.27-8.85,1.85a45,45,0,0,0-3.74,3.14c-1,1-1.86,2.2-2.87,3.23-2.24,2.51-5.65,3.54-7.94,6-1.22,1.28-2.18,2.8-3.32,4.14-1,1.19-2.17,2.25-3.18,3.43-1.72,2-2.76,4.52-4,6.83s-2.88,4-4.17,6.15c-.84,1.3-1.48,2.72-2.27,4-.64,1.11-1.43,2.14-2.07,3.25-1.46,2.85-2.32,6-4,8.75a68.25,68.25,0,0,0-4.28,8.17,24.91,24.91,0,0,1-1.92,4.24c-1,1.27-2.68,1.93-4.13.76a17.55,17.55,0,0,1-5.66-6,29.28,29.28,0,0,1-4.36-11.37c-1.23-5.77-2-11.74-1-17.6.56-4.84,3.23-9.06,5.8-13.08q4-6.57,8.16-13.05c4.16-7.23,10-13.21,16.29-18.62a79.89,79.89,0,0,1,7-6.29,73.82,73.82,0,0,1,10.78-6.53,83.41,83.41,0,0,0,7.94-4.31c2.22-1.6,4.62-3,6.71-4.73,3.18-2.73,5.93-5.94,8.88-8.92,1.87-2,4-3.8,5.76-5.91a22.69,22.69,0,0,0,2.79-5.06c-2.33-1.07-4.05-3.3-6.66-3.75-5.86-1.13-11.74.91-16.63,4.08a101.94,101.94,0,0,0-11,7.49c-5.48,4.6-10.25,10-15.15,15.19-4.62,5.19-9.48,10.29-13.05,16.28-3.45,5.6-5.72,11.81-8.95,17.52a57.14,57.14,0,0,1-8.22,11c-1.63,1.58-3.34,3.1-4.93,4.72a47.36,47.36,0,0,0-7.11,10.39c-2,3.33-3.35,7.78-7.23,9.36a1.93,1.93,0,0,1-2.42-.78,11.36,11.36,0,0,1-1.48-2.31c-1.38-3-1.8-6.35-2.49-9.55-.53-2.44-.77-5-1.84-7.29-1.31-2.62-3.33-4.78-5.1-7.08a74.5,74.5,0,0,1-7.13-11.12c-1.59-3.08-3.17-6.2-4.68-9.33-1.17-2.48-2.43-5.1-2.43-7.9a6.23,6.23,0,0,1-5.39-1.09c-2.89-2.61-4.22-6.4-5.83-9.85a27.16,27.16,0,0,0-4.08-6.31c-2.88-3.21-6.24-6-8.68-9.6a109.94,109.94,0,0,1-5.78-9.77c-1.74-3.21-3.61-6.35-5.32-9.57-1.09-2.26-2.63-4.78-2.05-7.37a21.87,21.87,0,0,1,2.8-5.54,26.75,26.75,0,0,1,4.2-4.57c4.87-4.46,9.69-9,14.24-13.76,6.62-7.29,15.44-11.85,23.64-17.06,6.84-4.25,13.74-8.42,20.92-12.08a93.61,93.61,0,0,1,15.45-6.71,171.42,171.42,0,0,1,17.61-4.35c4-.75,8.05-1.47,12-2.57s7.89-2.7,11.83-4c8.78-2.9,17.53-5.88,26.38-8.53-8-1.38-15.68-4.13-23.77-4.92-11.07-1.33-22.25-1-33.37-1.57-9.11-.57-18.24-1.18-27.34-2-4.09-.54-8.17-1.22-12.3-1.52-4.48-.19-9-.07-13.47,0A75.28,75.28,0,0,0,202.46,304a113.41,113.41,0,0,0-11.54,2.35c-2.42.28-15.13,6.06-15.2,2.93a5.07,5.07,0,0,1,.86-1.8c.51-.9,1-1.82,1.52-2.75a33.22,33.22,0,0,0,2.78-7.55,82.58,82.58,0,0,0,2.4-18.25c.15-4.79.05-9.61.65-14.38a49.07,49.07,0,0,1,3.48-13.14,69.93,69.93,0,0,1,9.31-16.25c3.44-4.83,6.95-9.64,10.23-14.59a157.57,157.57,0,0,0,7.76-14.14c1.72-3.1,3.29-7,6.88-8.32a16,16,0,0,1,3,0,59.07,59.07,0,0,1,18.9,3.86c4.74,1.86,9.14,4.47,13.66,6.79,8.74,4.55,17.74,8.56,26.73,12.57,6.89,3,13.6,6.33,20.33,9.63,3.15,1.56,6.36,3,9.48,4.68,3.59,1.8,7.36,3.5,11.42,3.75a8.42,8.42,0,0,0,5.6-1.11c-3.64-6.82-9.79-12.1-16-16.61a140.39,140.39,0,0,0-13.72-8.76,72.93,72.93,0,0,1-6-4.14c-2.16-1.46-4.44-2.76-6.65-4.14-4.22-2.58-8.83-4.43-13.3-6.49-5.95-2.47-11.41-5.92-17.18-8.76a124.52,124.52,0,0,0-12.65-4.56c-1.77-.57-3.58-1.1-5.38-1.58a10.76,10.76,0,0,1-4.3-1.86c-1.52-1.48.7-2.57,2-3.09a58.37,58.37,0,0,1,8.94-3.11,40.6,40.6,0,0,0,7.3-3.07c5.85-2.65,11.78-5.14,17.51-8.06,3.27-1.61,6.26-3.93,9.86-4.81,1.76-.56,3.16.21,4.64,1.07A45.21,45.21,0,0,1,291.5,164c9.12,6.86,19.25,12.25,28.32,19.19a86.87,86.87,0,0,1,9.12,7.69c4.11,3.77,8.33,7.42,12.27,11.36,2,1.9,3.94,3.81,5.93,5.66,1.9,1.69,3.93,3.53,6.45,4.18,1.54.39,3.07-.35,2.6-2.15a50.65,50.65,0,0,0-3.75-11.15c-1.88-4.2-3.57-8.53-6-12.45a44.6,44.6,0,0,0-8.28-9.93A105.38,105.38,0,0,0,325.23,168a63,63,0,0,1-9.49-7c-1.35-1.25-9.06-7.38-4.63-8a74.41,74.41,0,0,1,12.73,2.31c3.55.73,7.2.88,10.79,1.32a60.09,60.09,0,0,1,13.08,3.2,37.82,37.82,0,0,1,10.79,6.79c2.4,2.23,4.49,4.78,6.89,7,5.1,4.63,10.48,8.94,15.82,13.28,7.85,6.64,15.51,13.53,24.05,19.3a74.64,74.64,0,0,1,10.59,9.08,81.12,81.12,0,0,1,6,8.33c2.16,3.16,4.33,6.41,5.39,10.14,1.06,3.35,1.42,6.91,2.54,10.24a13.76,13.76,0,0,0,6.19,7.39,12,12,0,0,0,5,1.59c3.5,0,6.66-1.89,9.8-3.26,4.86-2.24,9.41-5.1,14.13-7.62,3.22-1.66,6.48-3.87,10.25-3.61,1-.75,8.79-7.62,10.14-7.06a48.91,48.91,0,0,1,9-.88c4.17.23,8.33.67,12.49,1,3.54.32,7,1.08,10.52,1.65a31.54,31.54,0,0,1,8.69,3.73,108.71,108.71,0,0,1,10.32,6.8c3.78,3.15,6.7,7.14,9.52,11.13,1.61,2.41,3.52,4.62,4.92,7.15a30.28,30.28,0,0,1,2.72,8.62,34,34,0,0,1,.44,4.27c0,1.13.15,2.78-1.23,3.12-2,.53-4.18-.15-6.14-.68-3.14-.93-6.22-2.13-9.39-3-7.14-2-14.68-2.21-22.06-2.19a98.11,98.11,0,0,0-13.35,1.3c-3.9.53-8.58,1.22-10,5.54-.56,3.68,5,4.79,7.64,5.59A93.65,93.65,0,0,0,513,287.3c4.54.47,9.13.83,13.7,1a68.58,68.58,0,0,1,10.23.66,61.48,61.48,0,0,1,8.72,2.59A48.92,48.92,0,0,1,558,297.78a59.82,59.82,0,0,1,7.56,5.79,23.56,23.56,0,0,1,5.61,6.53C577.57,321.14,579,337.94,579.18,350.59ZM470.66,424c-1-4.2-1.33-8.51-2.39-12.69-1.23-5-3.67-9.49-6.11-13.94-1.86-3.58-4-7-6-10.49-1.47-2.35-2.81-4.8-4.44-7-3.48-4.54-7.07-9-10.91-13.25C437,362.59,433,358.78,429,355c-4.1-.27-8.37-.29-12.16-2.06,1.57,4.35,3.28,8.75,6.09,12.46,1.9,2.47,4.17,4.65,6.23,7,3.83,4.17,7.3,8.66,11.23,12.74,4.21,4.77,9.89,8.25,13.06,13.91,2,3.42,3.8,7,6.14,10.26,2.07,2.82,4.12,5.66,6.29,8.4C467.46,419.8,468.93,422,470.66,424ZM358,345.06l.17-.22a18.79,18.79,0,0,1-4.86-1.13,22.27,22.27,0,0,0-3.33-1.16c-4.26-.63-8.62.09-12.86.63a59.24,59.24,0,0,0-10.23,2c-10,3.4-18.88,9.19-28.19,14-10.22,5.66-20.78,11.11-29.61,18.86a90.21,90.21,0,0,0-12.31,14.77c-2.14,3.1-3.87,6.46-6,9.57a189.37,189.37,0,0,1,17-14.34c3.43-2.57,6.73-5.38,10.46-7.52,9.19-4.8,18.44-10,28.8-11.79,3.43-.66,6.89-1.18,10.31-1.88s7-1.56,10.6-2.21c3.83-.73,7.69-1.29,11.46-2.32a57.81,57.81,0,0,0,11.4-3.8C353,353.9,355.05,349.2,358,345.06Z"/><path class="cls-3" d="M862.76,661a13.49,13.49,0,0,1-.83,4.45,30.11,30.11,0,0,1-3.39,5.34,59.27,59.27,0,0,1-7.48,8.42c-1.32,1.25-2.75,2.39-4.18,3.5-1.62,1.31-2.58,1.69-4.24.14.32,3.58.11,7.19.34,10.78a32.72,32.72,0,0,0,4.28,12.81c3,4.82,6.55,9.43,7.94,15a44.41,44.41,0,0,1,1.31,8.26,22.23,22.23,0,0,1-.33,6.86,41.25,41.25,0,0,1-4.34,11.3,82.05,82.05,0,0,1-5.61,7.39c-1.94,2.45-3.61,5.12-5.4,7.68-1.15,1.43-2.25,4-4.47,3.35-.25,5.15-.41,10.37-1.85,15.35-1.82,5.62-3.54,11.43-6.9,16.34a34.34,34.34,0,0,1-5.18,6c-2.28,2-4.92,3.59-7.37,5.4a95.13,95.13,0,0,0-8,5.61c-1.08.79-2,1.76-3.19,2.45-.82.45-1.71-.28-2-1.06-1.85-4.21-2.72-8.78-4.42-13.05-3.67-9.36-7.83-18.52-11.25-28-2.18-5.86-3.5-12-5.69-17.87-1.3-3.42-2.83-6.74-4.37-10a49.73,49.73,0,0,0-4.3-8.13,52,52,0,0,1-4.52-7.46c-1.65-3.42-2.91-7-4.71-10.39-2-4-5.13-7.36-7.93-10.85-2.27-2.41-4.29-5-6.39-7.59-1.74-2.09-3.72-4-5.6-5.93-3.57-3.7-8.09-6.36-11.35-10.35-2-2.21-3.91-4.52-5.87-6.76a69.22,69.22,0,0,0-6.94-6,68.43,68.43,0,0,0-10.75-6.44,50.2,50.2,0,0,0-4.93-2,35.32,35.32,0,0,1-4.15-1.49c.53,5.87.84,11.77,1,17.66,3.07,3.14,4.95,6.94,6.72,10.9a33.29,33.29,0,0,0,6.16,9.22,64.23,64.23,0,0,0,10.15,9c2,1.47,4.16,2.83,6.14,4.38a59.19,59.19,0,0,1,4.46,4.22c2.49,2.54,5,5.08,7.32,7.76,1.83,2.17,3.72,4.45,4.35,7.28,4.28,3.33,7.12,8.05,10.75,12a136.44,136.44,0,0,1,12,14.58c2.31,3.8,5,7.36,7.05,11.31,2.18,4.26,3.75,8.8,5.5,13.24A88.1,88.1,0,0,1,785.17,798a42.73,42.73,0,0,1,1.66,8.29c.4,3.72.38,7.48,1.12,11.15.45,2.51,1.26,4.94,1.8,7.43.71,2.84,1.12,5.78,2.08,8.56,1.53,4.07,4.09,8,4,12.48.08,3.86-3.62,5.84-6.1,8.17-5.05,4.15-9.15,9.38-14.19,13.49-3.76,2.85-10,5.34-9.57-2-.05-5.92.09-11.86-.31-17.77a157.07,157.07,0,0,0-2.25-16,115.11,115.11,0,0,0-4.64-21.89,110.79,110.79,0,0,0-6.25-18c-2.21-5.14-3.6-10.65-6.06-15.68-3.82-6.57-8.92-12.27-13.53-18.28a77.46,77.46,0,0,1-5.64-7.48c-1.18-1.59-1.87-3.68-3.49-4.87a20.48,20.48,0,0,0-4.8-3.27c-1.69-.49-3.24.91-4.46,1.91a110.92,110.92,0,0,0,4.37,12.8,73.82,73.82,0,0,0,2.54,7.09,30.51,30.51,0,0,0,5.55,8.08,75.67,75.67,0,0,1,7.44,9.4,27.8,27.8,0,0,1,3.09,5.5,36.37,36.37,0,0,1,1.33,5.35c1.06,6.48,2.83,12.88,3,19.48.23,4.41-.12,8.88.63,13.24.61,2.48,1.72,4.81,2.48,7.24,1.29,3.85,2.67,7.69,3.87,11.57a110.25,110.25,0,0,0,4.07,11.84c.68,1.7,1.13,3.48,1.69,5.22a53.82,53.82,0,0,1,2,7.5,32.29,32.29,0,0,1,.54,3.66,4.52,4.52,0,0,1-.69,2.24,11.16,11.16,0,0,1-3.09,3.33,24.38,24.38,0,0,1-3.1,1.46A79.47,79.47,0,0,1,736.15,884a40.14,40.14,0,0,1-7.68,1.43,7.42,7.42,0,0,1-3.74-.38,6.16,6.16,0,0,1-2.83-2.29,6.43,6.43,0,0,1-1.45-4.16c-1,2.92-2.84,3.26-5.64,3.09a67.32,67.32,0,0,1-6.79-.46c-4.62-.52-9.22-1.57-13.89-1.33a93.72,93.72,0,0,0-11.58,1.21,36.89,36.89,0,0,1-24.56-4c-1.53-1-2.93-2.19-4.43-3.22-2.55-1.9-5.31-3.49-7.87-5.37a165.55,165.55,0,0,0-14.7-10.7c-2.21-1.49-4.52-2.87-6.79-4.25-3.09-1.74-5.62-4.18-5.16-8a15.9,15.9,0,0,1,2.4-7.65,44.78,44.78,0,0,0,3-6.63c2.37-6.66,4.23-13.54,7.21-20,1.55-3.28,3.55-6.33,5.19-9.56,1.8-3.43,3.3-7,5.17-10.41,2-3.46,4.07-6.94,6.22-10.33,3.06-4.25,6.1-8.58,7.82-13.58a44.07,44.07,0,0,0,2.58-8.45,20.82,20.82,0,0,0-.14-4.6c-.5-3-1-6.28-3-8.78a13.17,13.17,0,0,0-4.1-2.62c-5,4-9.95,8.24-15.6,11.33-3.74,2-6.27,2.77-7.44-2.26a33.16,33.16,0,0,1,.53-16.29c2.14-7.83,7.24-14.34,11.3-21.23A56.23,56.23,0,0,0,645.54,702a109.13,109.13,0,0,0,3.58-15c-2.84,1.12-5.88,1.9-8.48,3.54-5.44,3.69-9.95,8.59-14,13.69-1.5,1.78-3,3.62-4.57,5.3-1.09,1.07-2.32,2-3.51,3-6.59,5.64-14.26,9.82-21.11,15.11-2.73,1.91-4.86,4.5-7.42,6.6-3.16,2.54-6.48,4.94-9,8.17-2.55,3-4.45,6.44-6.63,9.69-1.32,2-6,8.64-8.32,5.54a18.53,18.53,0,0,1-2.3-5.87c-.3-1.24-.77-2.44-1-3.69a16.19,16.19,0,0,1-.06-5,43.5,43.5,0,0,1,1.78-8.76,76.85,76.85,0,0,1,4-8.77c1.55-3.59,3.33-7.11,4.6-10.81,2.31-7.21,2.71-14.66,4.29-22a39.28,39.28,0,0,1,5-11.45,28.44,28.44,0,0,1,4.36-4.55,87.34,87.34,0,0,1,13.76-9.89,150.7,150.7,0,0,0,14.31-8.52,45.8,45.8,0,0,0,11.05-9.63c2.39-3.08,7.61-9.54,2.9-12.57a21.89,21.89,0,0,0-6.75-1.59c-3.82-.5-7.67,0-11.48.28-1.46-.11-2.48,1.08-3.62,1.84-2,1.51-3.91,3.16-5.75,4.83A57,57,0,0,0,590,654.85c-1.23,1.83-2.18,3.86-3.53,5.62a19.89,19.89,0,0,1-6.14,4.74c-3.93,2.17-7.77,4.54-11.46,7.09a55.87,55.87,0,0,0-7.64,6.06c-3.28,3.58-5.68,7.87-8.3,11.94-2.84,5.27-6,10.37-9,15.57-4.59,8.48-6.37,18.06-7.63,27.52-.52,3.27-.49,4-2.12.32-1.24-2.58-2.54-5.15-3.62-7.81-1.88-4.34-2.12-9.12-3.27-13.66s-3.25-8.88-4.9-13.31c-1.66-3.93-2.11-8.62-5.12-11.83a33.32,33.32,0,0,0-5.72-3.89c-.79-.46-2.28-1.78-1-2.26,1.21-.19,2.46,0,3.69-.13a7.17,7.17,0,0,0,3-.82,20.53,20.53,0,0,1,2.74-1c1.59-.43,3.21-.74,4.79-1.19,1.77-.39,1.9-.87,2-2.55.24-3.05.52-6.12.82-9.17,1.3-17.19,3.43-24.24,17-35.63,2.24-2,4.81-3.52,7.15-5.36,2-1.55,3.72-3.35,5.71-4.87,2.73-2.24,5.6-4.31,8.2-6.69a28.16,28.16,0,0,0,6.35-9.39c-5.27-.15-10.54-.8-15.81-.26-3.05.24-5.9,1.45-8.78,2.4a73,73,0,0,1-12.46,3c-3.42.63-6.88,1.16-10.27,1.94-3.83.77-8.18,2.09-11.75-.21-2.24-1.35-2.27-4.21-1.87-6.51A41.74,41.74,0,0,1,513.5,595c3.2-7.4,7.24-15.57,15.08-18.86a38.46,38.46,0,0,1,10-2.39,71.5,71.5,0,0,0,7.87-.74c3.22-.81,6.43-1.65,9.65-2.42,3.95-1.07,7.87-2.24,11.82-3.27a34.35,34.35,0,0,0,5.89-2.16,16.7,16.7,0,0,0,4.72-2.77,11.67,11.67,0,0,0,1.85-2.79c.91-1.66,1.88-3.32,2.68-5-2.26-.23-4.53-.56-6.81-.64s-4.7,0-7.05,0a106,106,0,0,0-13.56.87l-4,.63c-.64.38-1.35.79-2,1.14-2.68,1.52-5.47,2.85-8.28,4.12a35.2,35.2,0,0,1-7.32,2.83c-2.26.68-4.48,1.51-6.75,2.16a63.65,63.65,0,0,1-8.95,2,82.84,82.84,0,0,0-10.85,2.85c-4.62,1.44-16.12,7.9-19.39,2.36-1.09-2.85,1.69-6.41,3.06-8.81a77,77,0,0,1,8-10.46c.7-8.13,3.22-15.93,5.89-23.61,1.94-6.28,3.35-12.8,6.53-18.62,1.38-2.26,2.6-5.46,5.42-6.16,3.21-.58,6.22,1.15,8.87,2.74a49.34,49.34,0,0,0,7.43,3.59c5.58,2.34,11.68,2.54,17.56,3.61,6.92,1.11,13.83,2.52,20.83,3.06,5.22.23,10.43-.44,15.63-.87,1.26-.31,9,.19,8.08-1.77a25.53,25.53,0,0,0-4.66-4.86c-1.92-1.66-4-3.19-5.85-4.86A67.29,67.29,0,0,0,574.31,498a44.77,44.77,0,0,0-7.63-2.91c-2.48-.8-5.07-1.26-7.5-2.22A27.05,27.05,0,0,1,546,481.51a4.43,4.43,0,0,1-.64-3.26c.57-1.62,1.45-3.11,2.14-4.68s1.34-3.3,2.07-4.92a39.56,39.56,0,0,1,4.41-7.54c.82-.92,1.91-2.18,3.26-1.94a8.71,8.71,0,0,1,1.6.84,50.92,50.92,0,0,0,5.91,3.6c2.5,1.24,5.19,2,7.77,3.09a47.24,47.24,0,0,1,5,2.6c2.29,1.4,4.43,3,6.78,4.33a83.8,83.8,0,0,1,7.89,4.33c3.6,2.24,6.06,5.74,8.62,9,3.25,4.26,6.91,8.22,10,12.6,2,2.69,3.42,5.71,5.46,8.34a25.54,25.54,0,0,0,7.52,6.16c2.26-3.87,4.67-7.67,6.58-11.74,1.45-3.16,2.71-6.43,4-9.64s2.74-6.09,4-9.18c1-2.49,2.17-4.94,3.31-7.37a23.35,23.35,0,0,1,3.91-6.24c3.33-3.23,7.07-3.3,11.4-3.05,2.3.08,4.58.4,6.88.5,3.41,0,6.82.31,10.23.22,2.48,0,5-.11,7.45-.22.48.39,8-3.64,8.54-3.9,8.15-.64,8.82,3.09,9.33,10,.37,4.6,2.72,9.51,8.08,8.89,4.67-.25,9.09-1.91,13.64-2.84,11.68-2.39,24.76-4.29,35.54,2.09,4.42,2.5,8.87,5.94,10.62,10.88.5,1.54.66,3.91-.6,5.12a3.56,3.56,0,0,1-1.91.36l-2.93.06a104.28,104.28,0,0,0-11.71,1c-3.33.51-6.71.78-10,1.22-1.72.29-3.6.35-5.16,1.2-2.62,1.25-5,2.94-7.54,4.35a68.31,68.31,0,0,0-10.12,6.67c-5,4.57-3.26,6.36,2.78,7.18,4.46.51,8.94,1.22,13.45,1.07,6.45-.11,12.93-.19,19.36-.72,6.89-.36,13.89-1,20.74,0,8,1.23,11.6,4.27,16.39,10.6a29.08,29.08,0,0,1,6.93,14.58c.53,3.73.5,8-1.88,11.09a8.9,8.9,0,0,1-5.85,3.39c-3.51.38-7.07-.19-10.58-.39a101.57,101.57,0,0,1-14.73-2.16c-3.7-.78-7.28-2.08-11-2.77a103.72,103.72,0,0,0-21.53-1.85c-3.58,0-6.56,2.11-9.62,3.68,1.14,1.46,2,3.14,3.16,4.58a23.14,23.14,0,0,0,4.88,4.44c5.26,3.94,12,4.41,18.23,5.69,7.31,1.39,14.51,3.31,21.79,4.86,2.66.55,5.35.93,8,1.42,2.29.45,4.57,1,6.88,1.33a108.81,108.81,0,0,0,17.3,1c4.35,0,8.83-.48,13.09.66a13.57,13.57,0,0,1,5.06,2.61,13.34,13.34,0,0,1,2.07,3.29,25.27,25.27,0,0,1,1.38,4.69c.79,3.08,1.6,6.16,2.6,9.18,4.08,3.46,6.92,8,9.33,12.72,1.81,2.9,3.83,5.67,5.73,8.51,2.67,3.72,5.36,7.45,7.92,11.25,1.72,2.35,3.45,4.71,5,7.16s3,4.78,4.54,7.19a29.41,29.41,0,0,1,2.28,3.86A30.67,30.67,0,0,1,862.76,661ZM813,648.1a57.42,57.42,0,0,0-7.84-9.42A74.73,74.73,0,0,0,790,626.39c-.66-.39-1.33-.82-2-1.25-1.34-.42-2.67-.92-4-1.46-4.16-1.9-8.46-3.49-12.63-5.38-5.73-2.91-11.64-5.47-17.48-8.15-3.18-1.64-6.25-3.51-9.43-5.16-4.18-2.13-8.45-4.1-12.64-6.22.07,9.15,4.5,14.49,12,19.05,2.3,1.4,4.34,3.17,6.52,4.74a40.9,40.9,0,0,0,4.6,2.61c4.31,2.32,8.35,5.13,12.63,7.52a75.07,75.07,0,0,0,11.38,4.56c1.78.55,3.53,1.19,5.32,1.67,3.83,1,7.72,1.74,11.48,2.94C801.57,643.9,807,647,813,648.1Zm-9.81,58.33c-.95-3.48-1.56-7-2.79-10.44a38.13,38.13,0,0,0-4-7.87c-3.71-7-10-11.28-17-14.52a59.54,59.54,0,0,1-10.91-6.24c-2.87-2-5.81-3.93-8.67-6-3.17-2.17-6.41-4.25-9.4-6.67-3.32-2.57-6.33-5.51-9.4-8.36-2.65-2.52-5.12-5.23-7.58-7.92a42.08,42.08,0,0,0-4.52-3.8,30.3,30.3,0,0,0,0,6.93,22.76,22.76,0,0,0,5.64,10.34c3.41,3.59,7.71,6.18,11.26,9.62,3.73,3.46,6.56,7.76,10.17,11.33,4.44,4.19,9.31,7.89,14.08,11.68,3.11,2.47,6.54,4.51,9.85,6.69,3.16,2,6.22,4.1,9.44,6C794.28,699.79,799.6,702,803.17,706.43ZM722.29,861.89c0-6.38-.22-12.76-.17-19.14.09-5.54.38-11.12-.8-16.58-.73-3.57-1.71-7.08-2.76-10.56-1.35-4.88-3.65-7.2-8.83-5.28a86.21,86.21,0,0,0-1.41,15.45c.51,8.4,4.34,16,7.14,23.8,1.3,4.12,1.3,8.49,2.19,12.69.71,3.47,2.75,6.47,3.76,9.84A52.2,52.2,0,0,0,722.29,861.89Z"/></g><g id="レイヤー_5" data-name="レイヤー 5"><path class="cls-4" d="M311.34,157c.45.79,1.38,1.13,2.1,1.64,1.34.82,2.73,1.6,4.07,2.43,4.82,3.2,9.64,6.6,13.35,11.08,2.95,3.72,4.86,8.17,7.91,11.82,4,4.9,9,8.78,13.46,13.2a25.79,25.79,0,0,1,6.3,10.89c1.1,3.89,2.08,7.82,3.56,11.59a100.14,100.14,0,0,0,4.71,11.45c2,3.64,3.9,7.35,6.1,10.86,3.18,4.73,6.57,9.36,9.91,14,4.65,5.73,9.44,11.42,14.5,16.8,1.89,1.9,3.81,3.87,5.79,5.68.88.67,1.72,1.77,2.83,2l.08-.06c0-.53-.4-1.06-.62-1.53-.42-.76-.87-1.55-1.28-2.31-1.77-3.2-3.5-6.46-5.22-9.68-3.07-5.53-5.64-11.34-9-16.73a94.47,94.47,0,0,0-6.35-9.28c-2.92-4.22-6-8.34-8.93-12.58a68,68,0,0,1-9.16-20.66c-2.29-8.48-4.1-17.25-8.54-24.94-2.55-4.46-6.06-8.27-9.08-12.4a27.58,27.58,0,0,1-3.65-7.88c8.91,4.66,16.78,11.61,21.61,20.51,3,5.08,5.13,11.08,10,14.77,2.88,2.19,6.17,3.77,9.23,5.66a78.93,78.93,0,0,1,7.93,5.8,21.77,21.77,0,0,1,5.2,5.29,45.07,45.07,0,0,1,3.43,8.09c.59,1.32,1.93,7.38,3.56,4,.9-2.48.68-5.24.55-7.83-.14-3.28-.63-6.58-.59-9.86a3.72,3.72,0,0,1,2.51-3.12,15.46,15.46,0,0,1,2.45-.19c1.28-1.36-5.37-5.1-6.45-5.84a121.39,121.39,0,0,1-12.29-7.28A102.49,102.49,0,0,1,381,185c-2.39-2.21-4.81-4.43-7.08-6.77a114.23,114.23,0,0,0-8.25-8.65c-4.24-3.81-9.39-6.46-14.52-8.88-3.9-1.94-7.91-3.81-12.3-4.31-2.59-.38-8.8,1-11.28-.43-4.41-1.2-9.19-2.51-13.71-1.22C312.82,155.05,311,155.68,311.34,157Z"/><path class="cls-4" d="M372.86,261.94c4.36,2.95,8.83,5.76,13.12,8.82,3.18,2.21,6.11,4.79,9.31,7,3.59,2.48,7.42,4.62,11.06,7,1.24.77,2.48,1.58,3.7,2.38.73.42,1.4,1.15,2.24,1.27l.06,0c-.46-1.81-2.46-3.53-3.7-4.93a93,93,0,0,0-10-8.31c-8.46-6.76-17.41-13-25.46-20.25-4.56-4.45-8.07-9.86-12.11-14.76-10.82-12.62-21.25-25.72-33.78-36.73-5.58-4.93-10.51-10.59-15.93-15.68-3.5-3.06-7.55-5.47-11.17-8.38-7-5.54-14.76-10.09-22.54-14.41-5.55,1.06-15,2.28-20.25,4.2-3.65,1.28-7.26,2.69-10.92,3.92a82.72,82.72,0,0,0-8.3,3.63,20.37,20.37,0,0,0-3.05,1.74,3,3,0,0,0-1.27,1.37c-.33,2.29,4,3.24,5.66,4,2.14.77,4.3,1.57,6.46,2.27,4.19,1.3,8.33,2.8,12.49,4.19,2.78.94,5.67,1.64,8.35,2.85,3.74,1.7,6.88,4.45,10.33,6.63a60.16,60.16,0,0,0,10.82,5.5,33.61,33.61,0,0,0,10.84,2.38c8.33.15,12.91,5.91,18.7,10.95,4.94,4.22,10.19,8.11,15.43,11.94a178.32,178.32,0,0,1,15.34,11c3.31,2.63,6.57,5.33,9.68,8.21A98.77,98.77,0,0,0,372.86,261.94Z"/><path class="cls-4" d="M580.71,351.54a63.75,63.75,0,0,0-1.66-11.32c-.9-4.42-1.92-8.85-3.13-13.2-1.59-5.41-3.84-10.62-5.12-16.13-1-3.51-1.74-7.2-3.71-10.32-5-8.22-13.65-10.92-22.62-12.5-7.42-1.18-15-1.32-22.44-2-4.69-.29-9.32-1.2-14-1.72-3.13-.38-6.32-.43-9.43-.95-1.33-.31-2.88-.36-4-1.26-1.62-1.87,2.06-4.29,3.41-5.23,4.55-3,10.11-3.68,15.44-3.61a152.19,152.19,0,0,1,16.39.94,72.52,72.52,0,0,0,9.32.31c2.8-.64-.47-3.67-1.69-4.35-3.43-2.46-7.51-3.56-11.42-4.95-4.53-2-9.38-4.77-11.36-9.55-1.81-4.33,2.8-8,6.37-9.53,1.27-.52,2.6-.91,3.91-1.32,2.27-.54,2.6-2,1-3.62a17.21,17.21,0,0,0-7.62-4.34c-3.6-.94-7.27-1.64-10.69-3.15-12.34-5.57-25.51-4.19-37.35,2-6.48,3.26-12,8.09-17.93,12.18a43.19,43.19,0,0,1-7.17,4.11c-1.9.89-4,1.7-6.14,1-10-3.66-10.48-11.08-13.2-19.91.28,6.24.77,12.82-1.5,18.77-2,4.56-4.5,8.88-6.31,13.51a47.88,47.88,0,0,0-3.75,17.38c-.14,3.74-1,7.89,3.87,4,4.21-3.68,8.24-7.72,13-10.73,1.44-.47.49,1.32.08,1.83-2.85,3.8-6.47,7-9.83,10.3a28.34,28.34,0,0,0-2.71,3,3.69,3.69,0,0,0-.82,1.85c.9,4.26,15.21-4.05,18.45-3.86,2.24-.2,3.1,2.31,4.78,3.3a15.58,15.58,0,0,0,5.11,2.11c1.13.3,2.29.45,3.4.81,1.67.79-1.27,1.17-1.87,1.09-4.72-.2-9.45-1-14.19-.76a31.85,31.85,0,0,0-10.41,2.92c-3.28,1.32-6.54,4.12-3.37,7.56,2.56,2.48,6.07,3.7,9.33,5,4.45,1.57,9,3.11,13.43,4.67,8.43,2.74,17,5.15,25.48,7.64a81.4,81.4,0,0,1,8,2.13c3.58,1.2,6.62,3.49,10,5.14a58.68,58.68,0,0,0,12.56,4.06c2.72.68,5.61.41,8.25,1.44,2.5.74,4.25,2.73,6.14,4.41a42.63,42.63,0,0,0,9.28,6.73c6.94,3.69,14.71,5.54,21.63,9.27a51.19,51.19,0,0,1,11.56,8.77c2,1.84,4.07,3.6,6.23,5.25,1.52,1,4,3.94,4.44.12.21-3.22-1-6.35-2.2-9.27a45.62,45.62,0,0,0-4-7.46,43.82,43.82,0,0,0-6.73-8.2,54,54,0,0,0-9.07-5.85,67.83,67.83,0,0,0-13.57-6.19c-7.53-2.24-15.25-3.75-22.69-6.3-4.69-1.52-9.41-3-14-4.89a42.53,42.53,0,0,1-4.7-2.53,9.39,9.39,0,0,1-2.8-2.2c-.88-1.23-.17-2.79.84-3.69,3.26-2.78,8.86-2.86,12.85-1.86,5,1.58,9.44,4.5,14.26,6.5a255.44,255.44,0,0,1,28.8,13.32A86.36,86.36,0,0,1,558.39,343c2,1.78,4,3.62,6.15,5.26,3.16,2.38,6.43,4.63,9.41,7.24,1.52,1.24,2.86,2.69,4.32,4C580.63,361,580.74,352.73,580.71,351.54Z"/><path class="cls-4" d="M558.68,401.67a131.2,131.2,0,0,1-15.39-5.77c-1.43-.4-10.53-6.56-10.41-3.76a26.55,26.55,0,0,0,2.12,4.1c3.55,6.51,8.44,12.13,12.54,18.27,2.63,4,5,8.2,7.29,12.37,1.46,2.81,2.69,5.76,4.39,8.43,1,1.67,1.5,1.3,2.07-.42.55-1.46,1-3,1.54-4.44,2.92-9.11,5.37-18.41,7.42-27.75C570,402.62,558.93,401.87,558.68,401.67Z"/><path class="cls-4" d="M415.61,458.36c-.12-5.28-2.52-10.11-3.76-15.17a76.09,76.09,0,0,0-3.55-11.72,104,104,0,0,0-7.93-14.36,75.18,75.18,0,0,0-7.32-9.61c-2.57-2.62-4.93-5.47-7.55-8-.69-.66-1.45-1.31-2.18-1.92l-.58-.48-10.49-4.45c2,2.87,4.07,5.82,6.31,8.52a51,51,0,0,1,5.95,8.09,100.09,100.09,0,0,1,8.34,19.7,98.93,98.93,0,0,1,3.58,15c1.24,12.19.65,24.5.72,36.73.19,4.18.33,8.35.3,12.53a64.91,64.91,0,0,0,.91,10.5c.45,3.42,1,6.84,1.76,10.2a88.41,88.41,0,0,0,2.7,12.3c1.64,2.84,3.32-3.93,3.53-5a110.26,110.26,0,0,0,1.83-14.27,144.38,144.38,0,0,1,3.75-25.07C413.74,474.1,415.89,466.35,415.61,458.36Z"/><path class="cls-4" d="M363.93,487.38c0-3.73-2-7-3.66-10.19a47.33,47.33,0,0,1-4.9-12.81c-.44-1.9-.85-3.64,1.51-4.28a7.92,7.92,0,0,1,2.56-.31,10.22,10.22,0,0,0,1.35.1,1.71,1.71,0,0,0,1.38-1.24,9.2,9.2,0,0,0-.72-4.56c-.78-2.09-1.8-4.1-2.78-6.1-.81-1.62-1.69-3.25-2.58-4.84-.72-.79-4.57-10.87-5.09-12-2.22,6.77-4.62,13.53-6.11,20.5-1,4.89-1.28,9.9-2,14.83s-1.58,9.72-1.94,14.62c-.29,5.91-.33,11.84-1.16,17.71-.81,6.2-1.82,12.37-2.39,18.6-1,8.68-2.24,17.35-2.84,26.08-.4,7.82-.11,15.67-.42,23.5a50.61,50.61,0,0,0,.06,6.16c.54,2.75,2-.41,2.22-1.53,2.71-11.71.54-23.9,2-35.76a26.72,26.72,0,0,1,3.08-10.33,5.13,5.13,0,0,1,4.94-3.2,23.44,23.44,0,0,1,3.74.19,11.39,11.39,0,0,0,3,.28c1.81-.17,3.3-1.5,4.45-2.82a22.86,22.86,0,0,0,1.77-3.74,54.26,54.26,0,0,0,3.94-17.29A108.21,108.21,0,0,0,363.93,487.38Z"/><path class="cls-5" d="M579.46,498.34a24.07,24.07,0,0,0-12.37-15.92c-6.94-3.48-10.81-6.13-14.68-13.09-.69,1.2-3.4,8.24-4.82,8.67a62.39,62.39,0,0,0-7.92,8.49c-1.29,1.55-2.6,3.12-3.86,4.68-.8,1.11-1.94,2.25-2.06,3.68,0,.73.74,1,1.34,1.17a20.27,20.27,0,0,0,2.57.43c3,.36,6.08.8,9.14.93,4.65.13,9.32,0,14,.23a88.92,88.92,0,0,1,9.88,1.38c1.82.33,3.67.61,5.52.77C577.37,499.88,579.77,500.21,579.46,498.34Z"/><path class="cls-5" d="M724.8,465.06c-.8-4.84-8.85-8-13.19-8.52-.51.16-8.71,1.8-8.77,2.41-3.63,2.61-7.23,5.77-11.85,6.29-2.73.51-5.53.61-8.26,1.11A20.64,20.64,0,0,0,671.25,474c-1.23,1.55-2.31,3.22-3.61,4.72s-2.77,2.94-4,4.51a11.73,11.73,0,0,0-1.33,3.11c-.52,1.55-1,3.13-1.54,4.67a27,27,0,0,1-4.47,7.34c-1,1.22-1.9,2.48-3,3.6-2.08,2-4.49,3.65-6.68,5.51-7.38,6.81-15.37,13.12-21.59,21.06a1.85,1.85,0,0,0,1.17,3,10.13,10.13,0,0,0,5-.14,31,31,0,0,0,7-2.56,72.12,72.12,0,0,0,18.41-13.5c4.9-5.53,10.33-10.57,15.54-15.8a111.07,111.07,0,0,1,18.65-15.19c3.32-2.24,6.41-4.87,10-6.7,6.27-3.39,13.07-5.61,19.65-8.27C722.29,468.47,725.1,467.6,724.8,465.06Z"/><path class="cls-5" d="M620.65,525.53c2.31,2.46,11-10.48,12.58-12.4,3-3.91,6.26-7.63,9-11.71,4.19-7.17,2.9-16.51,8.21-23.2a29.33,29.33,0,0,1,8.42-7.05c1-.63,2.06-1.23,3.1-1.81.78-.43,2.29-1.14,1.37-2.17-1.14-1-2.82-1-4.25-1.19-.25-.44-8.32,2-8.75,2a20.17,20.17,0,0,0-6.17,3.62c-3.44,3.23-5.14,7.81-6.59,12.19-1.54,4.59-2.93,9.25-4.71,13.76a126.62,126.62,0,0,1-7.22,15.76,53.66,53.66,0,0,0-4.34,9.24A8.46,8.46,0,0,0,620.65,525.53Z"/><path class="cls-5" d="M618.79,553.85c2.2-1.62,4.35-3.36,6.4-5.18,1-1,2.36-1.93,3-3.3,2.12-5.15-3.25-7.85-7.58-8.27-.81.64-6.28,6.14-7.27,6.11-3.79,1.9-7.72,3.84-10.91,6.67-2,2-3.92,5.39-1.72,7.91C605.8,562.72,614.15,557.09,618.79,553.85Z"/><path class="cls-5" d="M568.49,610.39c-8.2,6.33-16.23,13-24,19.85A196.81,196.81,0,0,0,523,653.84a55.11,55.11,0,0,0-4.62,7.33c-1.39,2.32-2.91,4.59-4.3,6.92a49.32,49.32,0,0,0-5.52,12.23c-.25,1.07-.77,2.26-.2,3.31,3.64,4.5,12.69,7,18.33,6.86,5.66-.76,7.56-7,9.29-11.58,2-5.45,3.59-11.07,5.49-16.55,3.64-11,10.1-20.62,16-30.45,4.12-6.81,7.34-15,11.52-21.82C568.89,610.1,568.53,610.37,568.49,610.39Z"/><path class="cls-5" d="M789.34,575.09c3.46,3.51,8,4.68,12.78,4.95,4.31.45,8.7.72,12.85,2,3.51,1.13,6.3,3.72,9,6.09a16.83,16.83,0,0,0,4.6,3.41c5.27,1,0-21.16-.77-24.08-.49-1.93-1-3.89-1.58-5.8.11-1-4.57-7.49-5-8.37-1.63,1.84-3.22,3.78-4.81,5.66s-3.39,3.42-6,3.25c-5.71-.07-11.57-2.23-17.21-.55a16.36,16.36,0,0,0-5.48,3.69C784.21,568.27,786.61,572.61,789.34,575.09Z"/><path class="cls-5" d="M859.69,726.75c-.09-2.52-1.68-4.61-3.16-6.54-1.75-2.36-3.27-4.89-4.9-7.34-3.12-4.88-6.8-9.9-7.16-15.88a37.17,37.17,0,0,1,.21-4.83,16.55,16.55,0,0,1,.58-3.64,31.21,31.21,0,0,1,5.12-8.73,89,89,0,0,0,6.39-9.42,52,52,0,0,0,1.82-5c1.14-3.56,1.49-7.41-1.63-10.12a5.28,5.28,0,0,0-5.05-1.57c-3.17.76-5.85,2.81-8.93,3.83a23.81,23.81,0,0,1-9.54,1.73c-4.1-.61-7.94-2.37-11.89-3.54-1.67-.4-3.45-1-5.14-.43-2.87,1.15-5.34,2.42-4,5.93,1.23,3,3.34,5.66,4.94,8.51,3,5.36,6.67,10.37,9.49,15.83,3.91,8,7.93,16.16,8.68,25.11,1.34,6.86-5.24,2.9-8.75,2.26-2.61-.5-5.43-1.29-8-.33a3.39,3.39,0,0,0-2.73,2.75c-.25,4.27,2.76,7.81,4.56,11.45a42.5,42.5,0,0,1,5,13.58c.27,1.45.57,2.9.84,4.34.16,1.08-1,1.73-1.83,2a3.65,3.65,0,0,0-2.82,3.24c-.69,3.25.87,6.37,2,9.35a40.61,40.61,0,0,1,2,19.49,41.31,41.31,0,0,1-2.66,10.08c-.67,1.79-1.29,3.64-3.31,1.5-4.95-5.34-7.66-12.2-11.29-18.4-4.13-7-8.17-14.73-15.13-19.3-3.59-2.65-4.52,2.59-4.38,5.2.18,5.32,1.65,10.48,2.86,15.63a68,68,0,0,1,1.2,13.66,85,85,0,0,0,.41,10.1c1.16,6.37,2.63,12.69,3.57,19.1.36,2.38.77,4.77.94,7.17a17.06,17.06,0,0,0,.31,3c1,2,3.08-.73,3.8-1.72,3-4.33,5.17-9.28,8.85-13.13,3.44-3.85,8.16-6.1,12.28-9.09a18.25,18.25,0,0,0,5-6.82c3-6.78,4-14.22,6.59-21.15a70.22,70.22,0,0,1,3.67-9.79c2.49-3.46,6.1-6,8.56-9.46a107,107,0,0,0,8.81-16.07,57.27,57.27,0,0,0,3.31-7.48A21.68,21.68,0,0,0,859.69,726.75Z"/><path class="cls-5" d="M785.62,858.31a19.49,19.49,0,0,0-1.18-2.15c-1-2-1.86-4-3-5.91-1.84-3-3.45-6.25-5.16-9.39-1.29-2.34-2.86-4.55-4.16-6.89-1.67-3-2.94-6.23-4.42-9.33-2.33-4.69-4.63-9.44-6.52-14.34-2.09-5.17-4.6-10.24-6.09-15.64,1,4.6,1.5,11.16,2.65,15.62,1,3.94,2.47,7.75,3.41,11.7.71,3.22,1.32,6.48,1.73,9.76.47,3.93.69,7.9,1.33,11.82.58,4.12,1.56,8.21,1.77,12.38.32,5.64-.37,11.42.75,17,.66,1.93,1.82-.4,2.62-1a32.9,32.9,0,0,1,4.39-3.59c3.21-2.31,7.11-3.65,9.87-6.58C784.47,860.83,785.75,859.7,785.62,858.31Z"/><path class="cls-5" d="M706.34,851.62a63,63,0,0,0-3.46-17.6c-.74-2.67-4.28-8.27-5.68-10.7.56,5.59,1.78,11.14,2.08,16.76,0,2.09.35,4.42-.49,6.39-1.69,2-5-3.23-6.12-4.37-1.69-2.11-3.53-4.15-5.29-6.19-4-4.57-7.18-9.81-11.87-13.73-3.85-4.16-3.84,8.93-4.35,10.83a54.51,54.51,0,0,1-3.84,15.77,25.1,25.1,0,0,1-1.47,3.1c-.66,1.12-1.49,1.52-2.55.58-6.2-6.74-4.59-16.65-4.41-25,0-7.54,1.35-16.09-3.29-22.61-2.55-3.23-6.5-6.71-10.7-4.09-10,5.72-21.24,24.29-25.16,35.13a32.42,32.42,0,0,0-1.62,11c.25,2.47,1.92,4.46,3.58,6.18a34,34,0,0,0,4.72,3.74c1.6,1.17,3.14,2.44,4.65,3.71,4.77,4.07,9.22,8.54,14.17,12.4,2.87,2.34,6.31,3.82,9.32,5.95s5.51,4.63,8.68,6.31a16.89,16.89,0,0,0,6.52,1.33A34.9,34.9,0,0,0,680.84,885c2.49-.58,5-1.31,7.4-2,3.53-1,7.14-2.58,9.55-5.45,3.12-3.65,4.62-8.35,6.08-12.85C705.26,860.48,706.53,856.1,706.34,851.62Z"/></g><g id="レイヤー_4" data-name="レイヤー 4"><path class="cls-6" d="M538.34,357.81c-.35-1.05-1.49-1.84-2.21-2.66a56.27,56.27,0,0,0-6.08-5,95.57,95.57,0,0,0-14.68-8.23c-5-2.41-10.18-4.61-15.42-6.54-8.78-3.34-17-7.93-25.84-11.21-5.14-2-10.49-3.3-15.76-4.88-5.05-1.51-10-3.24-15.06-4.78a95.13,95.13,0,0,1-9.92-3.93,75.67,75.67,0,0,1-7.76-3.58c-2.41-1.16-4.57-2.78-7-4a12.63,12.63,0,0,0-6.9-1.2c3.26-2.09,7.11-2.66,10.9-3,4.51-.42,9.05-.74,13.58-.89,5.55-.17,11.09-.72,16.64-.68,6.61,0,13.19.55,19.78.95,10.61.73,21.26.56,31.88,1.08a44.29,44.29,0,0,0,6.91-.29,13.86,13.86,0,0,0,2.48-.44c.18-.05.54-.19.35-.41a7.78,7.78,0,0,0-2.47-.95,48.83,48.83,0,0,0-8.49-1.48c-7.92-.91-15.88-1.18-23.82-1.81-5-.41-9.89-1.28-14.85-1.76-5.85-.39-11.72-.15-17.57-.28-7.31-.25-14.62-.6-21.93-.24,4.24-1.71,8.81-2.61,12.87-4.78,3.72-1.93,7.46-3.82,11.06-6,3.8-2.28,7.4-4.9,11.26-7.09,8.18-4.2,16.62-7.9,25.05-11.57,7-3.11,13.91-6.52,21.31-8.55-8.86.73-17.33,3.45-25.78,6-6.7,1.86-12.91,5.08-19.18,8-3.52,1.74-6.65,4.18-10.15,5.94s-7.15,3.25-10.6,5.12c-2.5,1.36-4.68,3.26-7.23,4.55-2.85,1.33-6,2-8.91,3.15-1.84.66-3.94,1.18-5.24,2.75a14.37,14.37,0,0,1,2.18-2.67c1.92-1.6,4.08-2.9,6-4.49,3.26-2.61,6.73-4.94,10.12-7.37a97.5,97.5,0,0,0,13-11.56c.4-.54,4.62-4.87,2-3.58-1.75,1-3.34,2.28-5,3.39-2,1.33-4,2.64-5.86,4.14a105.79,105.79,0,0,1-9.18,7.21c-3.59.81,2.77-11,3.32-12.39l-2.05-8.95c-2.76,12.6-4,8.61-10.63,17.19a12.85,12.85,0,0,0-2.82,5.68c-.39,1.61-.48,3.27-.92,4.87a16.61,16.61,0,0,1-1.78,4.18,10,10,0,0,1-2,1.93,19.59,19.59,0,0,0-.53-7.47c-.52-2.11-1.46-4.1-1.87-6.24A144.87,144.87,0,0,0,411,256.92c-.37-1.53-.69-3.08-1.08-4.6a5.54,5.54,0,0,0-.59-1.76h-.08c-.57,1.71,0,3.7.18,5.45.34,3.16.78,6.3,1.25,9.43a38.9,38.9,0,0,1,.37,6.38c0,1.82-.71,2.85-2.13.94s-2-4-3.16-6c-1.31-2.48-3-4.77-4.21-7.27-1.46-2.63-2.58-5.42-4-8-1.22-2.35-2.83-4.49-4.11-6.81-2.27-4.14-4.4-8.36-6.81-12.42-2.52-4.24-5.21-8.39-7.56-12.73-1.5-2.8-2.45-5.85-3.74-8.73-2.89-5.93-6.12-11.7-9.08-17.59-2.93-5.38-5.62-10.92-8.93-16.08-.59-.89-1.15-1.83-1.77-2.7a3,3,0,0,0-.41-.53.43.43,0,0,0-.38-.2c-2,2.77,2.72,9.17,3.9,12,1.57,3.08,2.87,6.3,4.45,9.38,2.23,4.27,4.68,8.43,7,12.67,3,5.58,5.64,11.3,8.13,17.11,2.57,5.22,4.67,10.67,7.28,15.88a106.43,106.43,0,0,0,6.29,10.84c2.33,3.48,4.89,6.81,7.14,10.35a129.1,129.1,0,0,1,9,17.74c-1.87-1.58-4-2.88-5.9-4.36a37.17,37.17,0,0,1-6.19-5.9c-5.84-7-11.76-14-16.87-21.51-2.66-3.82-5.74-7.33-8.5-11.09s-5.76-7.37-8.31-11.27c-2-3-3.72-6.16-5.83-9.07s-4.58-5.5-7-8.16-4.66-5.15-7-7.7a76,76,0,0,0-5.94-6.36c-5.45-4.73-11.18-9.15-16.93-13.5-2.16-1.56-4.48-2.92-6.72-4.38-2.07-1.35-4-2.85-6.12-4.18a148.2,148.2,0,0,0-15.82-9.26c-4-2-8.28-3.61-12.79-3.43-5,.24-8.79,3.8-13.05,5.89a80,80,0,0,1-7.34,3.41c-.83.35-1.69.69-2.52,1a2.47,2.47,0,0,0-1,.66,1.07,1.07,0,0,0-.07,1c2.57,5.48,26.59,8,13.42,15.66-4.55,2.73-2.67,5.55.91,8,3.11,2,6.62,3.15,10,4.66a95,95,0,0,1,8.44,4.38c2.95,1.83,5.79,3.86,8.76,5.66,2.33,1.46,4.76,2.8,7.17,4.13a20.89,20.89,0,0,0,5.56,2.15,4.87,4.87,0,0,0,3.69-.32,21.52,21.52,0,0,1,3.1-1.49,23.12,23.12,0,0,0,2.48-.64c1.48-1.16.17-3.27-.59-4.5-1.83-2.94-4.82-4.83-7.28-7.18-1-.87-3-2.82,0-1.63,3.93,1.77,7.08,4.88,10.34,7.63,4.87,4.24,9.41,8.84,14.14,13.24,2.17,2,4.17,4.19,6.25,6.29,1.91,1.89,3.91,3.7,5.83,5.59,3,3,5.79,6.25,8.94,9.12,3.7,3.43,7.7,6.5,11.68,9.59,1.63,1.25,3.13,2.68,4.78,3.9a75.66,75.66,0,0,1,9.74,7.64c3.44,2.93,6.83,5.92,10.26,8.87,3.73,3,7.79,5.55,11.43,8.67a40,40,0,0,1,8,8l1.37.62a16.45,16.45,0,0,0-3.54,3.72A126.32,126.32,0,0,1,385.59,284a31.76,31.76,0,0,1-8.86-5.88,13.5,13.5,0,0,1-1.92-2.08c-.22-.35-.53-.81-.36-1.23.37-.41,1,0,1.45.14,1.19.41,2.41.84,3.59,1.29,3.24,1.23,6.29,2.93,9.53,4.13,1.26.4,2.62,1.16,4,1,0-.38-.57-.56-.82-.8-.75-.53-1.53-1.06-2.32-1.53-2.82-1.71-5.8-3.14-8.63-4.82-3.85-2.36-7.67-4.78-11.63-6.95s-7.84-4.08-11.39-6.71a68.08,68.08,0,0,1-10.35-9.14,59.72,59.72,0,0,0-8.77-7,10.17,10.17,0,0,0-4.1-1.6c-2.21-.22-4.44.08-6.65-.11-4.17-.28-8.14-1.76-12-3.27a76,76,0,0,1-13.19-6.14c-4.93-3-9.45-6.64-14.5-9.46-6.22-3.46-12.9-6-19.14-9.45-4.5-2.47-8.42-6.16-13.57-7.28-3.91-1.06-7.47,1.45-10.28,3.91a5.21,5.21,0,0,1-2.83,1.4,27.58,27.58,0,0,1-6-.66,34.09,34.09,0,0,0-10.17-.79c-1.95,0-11.34,1.37-5.55,2.95,2.91,1,5.89,1.77,8.72,3,4.75,2,9.29,4.47,14,6.47,4.28,1.87,8.68,3.46,13,5.16,7.1,3.14,14.24,6.22,21.25,9.57q7.2,3.51,14.52,6.79c5.79,2.51,11.65,4.89,17.24,7.83,6.65,3.4,13.22,7,19.94,10.24,2.37,1.05,4.86,1.83,7.29,2.74,2.23.84,4.4,1.84,6.6,2.77,5.12,2.3,10.11,4.94,15.09,7.55,3.88,2.17,7.75,4.36,11.76,6.28,5.56,2.94,11.39,5.33,17.12,7.91a71.81,71.81,0,0,0,11.4,4.45,15.59,15.59,0,0,0,8.59.26c-1.7,2.42-3.32,4.91-5,7.37-6.83,1.26-13.84.44-20.69-.22-8.3-1.07-16.25-3.85-24.3-6-6.8-1.65-13.55-3.51-20.31-5.31-2.55-.69-5.16-1.19-7.73-1.84-2.38-.6-4.68-1.47-7-2.2a21.58,21.58,0,0,1-4.88-1.9,42.33,42.33,0,0,1-4.2-3.36c-4.86-3.67-9.36-7.88-14.61-11a19.12,19.12,0,0,0-7.6-2.84c-4.54-.4-9.11-.13-13.66-.2a122.37,122.37,0,0,1-14.33-.58,46.94,46.94,0,0,1-12.28-2.71,109.3,109.3,0,0,1-10.67-4.89,73.8,73.8,0,0,0-8.12-4.14,27.42,27.42,0,0,0-4.78-1.28c-.65-.06-1.4-.45-2-.05-.25.3-.07.74,0,1.05a11.44,11.44,0,0,0,1.27,2.16c1.89,2.63,4.49,4.63,6.65,7a27.93,27.93,0,0,1,3.46,4.56c1.72,2.33-3.47,1.91-4.7,2.08-4.72,0-9.57.65-13.84,2.77-2.9,1.47.67,2.67,2.26,2.86,5.15.67,10.4.39,15.58.54,6.59.23,13.26.28,19.75,1.54A88.93,88.93,0,0,1,270.48,282c4.55,1.61,9,3.63,13.68,4.84,4.24,1,8.63,1.06,12.93,1.59,6.41.72,12.82,1.66,19.14,2.94,8.25,1.54,16.34,3.71,24.41,6,5.74,1.45,11.55,2.59,17.33,3.88a243.2,243.2,0,0,0,28.76,4.62c2.21.28,4.44.5,6.66.78a57,57,0,0,0,5.95.68c-3.53,5.43-7.75,9.92-11.51,15.08-4.3-.44-8.63.27-12.92-.16-7-1.12-14-2-21.06-2.81a93.35,93.35,0,0,0-11.69-.83,68.36,68.36,0,0,0-12,1.5,110.08,110.08,0,0,0-13,3.47c-3.68,1.2-7.4,2.36-11,3.8-3.88,1.64-7.71,3.42-11.64,4.94a64.76,64.76,0,0,1-11.74,4.15c-5.34,1.18-10.63-.72-15.77-2a57.62,57.62,0,0,0-15.36-2.28,24.19,24.19,0,0,0-7.94,2.18l4.44-1.05c-8.65,2.74-16.52,7.31-23.83,12.61-2.44,1.7-5,3.26-7.35,5.1-3.32,2.58-6.49,5.37-9.82,7.95-1,.81-2.07,1.66-3.05,2.54-.38.37-1.41,1-.84,1.5,2.87,1.23,6.66,1.89,8,5.12,2.11,5.17-1.86,10.11-4.48,14.29-2.44,4-5.93,7.23-9.54,10.2-1.91,1.67-3.69,3.51-5.68,5.09a28.09,28.09,0,0,0-4.77,4.73,8.35,8.35,0,0,0-.12,6.58c1.2,3.12,3.7,5.48,5.71,8.08a58,58,0,0,1,4.54,6.74c.18.26.33.57.63.7a2,2,0,0,0,1.26-.08c1-.31,1.87-.79,2.81-1.14a12.53,12.53,0,0,1,5.77-1.14A8.34,8.34,0,0,1,214,426c.56.82.92,1.77,1.55,2.53,1.09,1.12,2.82.3,3.9-.43,2.86-1.95,4.75-4.94,7.11-7.41,2-2.13,4.45-4,6.23-6.33.11-1-2-.7-2.66-.72-1.06-.05-3.06.65-3.18-.93a5.7,5.7,0,0,1,1.43-3.13c1.07-1.4,2.23-2.79,3.31-4.18,2.68-3.36,5-7,7.37-10.6,1.16-1.71,2.38-3.41,3.53-5.14,2.13-2.77-2.16-.47-3.15-.06-4.88,2.33-8.94,6-13.31,9.1-.92.27-.46-1.36-.35-1.81,1.27-4,4-7.29,6.05-10.9,2.61-4.51,4.61-9.1-2.8-5.59-3,1.62-5.63,3.9-8.52,5.7-.67.36-3.41,2.46-2.37.43a23.66,23.66,0,0,1,3.37-3.64c9.11-8.57,20.06-14.92,30.82-21.16,10-5.81,20.16-11.37,30.65-16.24,6-2.92,12.45-4.71,18.48-7.55s11.85-6,18-8.62c1.75-.71,3.49-1.51,5.19-2.35.9-.14,1.82-.35,2.72-.53,5.08-1,10.21-1.65,15.34-2.28a90.36,90.36,0,0,1,17.23-.9,119.23,119.23,0,0,1,13.42,2.1,45.13,45.13,0,0,0,11.79,1.51c-2.35,5.75-4.5,11.59-7,17.29a175.09,175.09,0,0,0-8.64,24,34.94,34.94,0,0,1-5.69,1.29,44.78,44.78,0,0,0-10.35,0c-4.29.25-8.24,2.1-12.44,2.76-4,.63-8.08.5-12.07,1.24-8.82,1.59-17.15,5-25.37,8.47-5.61,2.15-10.75,5.36-16.26,7.7-1.55.43-1.27-.43-.33-1.29,7.39-8.27,18.28-11.75,27.41-17.54v-.05a126.63,126.63,0,0,0-25.33,8.3c-5.34,2.38-10.75,4.72-15.6,8-3.06,2.09-6.15,4.19-9.07,6.47s-5.7,4.94-8.57,7.37a277.61,277.61,0,0,0-22.06,20.49c-5,5.29-9.74,10.88-15.13,15.78-2.34,2.1-5,3.92-7.14,6.19a19.47,19.47,0,0,0-3.85,6.17,4.68,4.68,0,0,0,.52,3.35c1.11,2.58,3.21,4.54,4.79,6.82a59.64,59.64,0,0,1,8.57,16.34c1.79,4.86,3.63,9.8,6.82,13.94a58.4,58.4,0,0,0,4.93,5.73c1.38,1.49,4.3,5.24,6.42,4.89.54-.27.43-1,.56-1.51.82-5.07,2.24-10,3.45-15,1.76-7.29,3.49-14.6,5-21.94.58-2.89.88-5.85,1.67-8.7,1.59-5.51,5.51-9.86,9-14.26a171.41,171.41,0,0,1,14.14-14.89c4.5-4.36,9-8.78,13.8-12.8,9-7.57,17.82-15.45,27.91-21.53,5.49-3.56,11-7.19,17-9.82,6.58-2.85,13.39-5.54,20.51-6.65a104.31,104.31,0,0,1,15,.11c-2.6,7-5.72,13.84-7.75,21a65.2,65.2,0,0,1-9.6,8.58c-3.07,2.11-6.26,4-9.4,6a31.55,31.55,0,0,0-6.18,5.23c-1.65,1.82-3,3.92-4.6,5.77-2.44,2.48-5.44,4.34-8.07,6.61-3.69,3.41-8.76,4.22-13.43,5.52a7.61,7.61,0,0,0-3.08,1.34c-.63.62-1.15,1.36-1.83,1.95a18.62,18.62,0,0,1-2.7,1.88,53,53,0,0,0-5.49,4.41c-4.11,3.84-8.81,7-12.73,11.08a97.39,97.39,0,0,0-12.53,17.11c-3.55,5-7.12,9.94-11.13,14.56a26,26,0,0,0-2.2,2.82,13.6,13.6,0,0,0-1.15,7.5,34.14,34.14,0,0,0,4.19,13.74c1.4,3.19,3,6.3,4.61,9.38a34.16,34.16,0,0,0,2.7,4.85c1.76,1.3,4.48-6.3,5.29-7.51a52.7,52.7,0,0,1,4.81-8.05,41.86,41.86,0,0,1,6.16-6.11,42.59,42.59,0,0,0,7.43-6.76c2.68-3.21,4.64-6.92,6.78-10.48a127.84,127.84,0,0,1,9.66-13.57c2.21-2.61,5.26-4.37,8.27-5.91a28.19,28.19,0,0,1,5.15-2.22,30.65,30.65,0,0,1,6.06-.17,14.22,14.22,0,0,1,4.06.39l4.21,1.36c1.3.4,2.59-.51,3.47-1.38.11,1.92.27,3.88.43,5.8-.37,2-.72,4.07-1,6.11a63.07,63.07,0,0,0-.39,6.45,5.91,5.91,0,0,1-.45,1.91c0,1-.05,2.18-.13,3.21.18-.53.35-1.08.53-1.62-.11,6.32-1.52,12.5-2.25,18.75-.72,8.42-1.23,16.87-2.71,25.2-2.27,12.29-4,24.9-2.66,37.4a32.9,32.9,0,0,0,1.19,6.7c.41,1,1,2,1.45,3,2.74,6.63,2.61-6.48,2.56-8-.24-7-.63-14-.78-21a110.82,110.82,0,0,1,.25-11.67c.55-5.47,1.6-10.89,2.66-16.28s1.67-10.89,2.53-16.33c.27-1.61.37-3.25.61-4.87.23-1.33.68-2.61.87-3.95.34-1.88.35-3.81.55-5.71s.58-4.05.87-6.07c.22-1.66.26-3.35.35-5a6.11,6.11,0,0,1,.43-2.66c2-3.35,3.63-.64,5.11,1.42a44.93,44.93,0,0,1,4.74,8.34c1.2,4,1.92,8.2,3,12.27.23,1,.52,2.07.8,3.09.19.67.67,2.32,1.36,1a14.84,14.84,0,0,0,.75-5,25.19,25.19,0,0,0-2.19-10.54,27.1,27.1,0,0,0-3.6-6.89c-1.62-2.15-3.31-4.27-5-6.34-.51-.71-1.41-1.26-1.74-2.06a45.82,45.82,0,0,1-1.54-5.38c-.31-1.73-.55-3.47-.95-5.19-.13-.64-.28-1.29-.38-1.94.3-.9.59-1.82.89-2.72.73-2.16,1.53-4.3,2.35-6.42,2.37-6.19,4.69-12.41,7.06-18.6,2.56-7.06,4.6-14.29,6.63-21.51,1.83-6.42,4.07-12.71,6.44-18.95a49.14,49.14,0,0,0,2.76,9.17,34.37,34.37,0,0,0,3.55,7.38c1.71,2.6,4,4.74,5.9,7.23a59.1,59.1,0,0,1,4.35,8.21,32.63,32.63,0,0,1,1.94,5.24c.64,2.87-.35,7.64-3.06,9.2-1.3.69-2.79.87-4.09,1.66s-3,1.92-3.2,3.61a8.38,8.38,0,0,0,.45,2.8c1.25,5.08,3.48,9.92,4.07,15.16.72,4.17,0,8.69,2,12.58.53,1,1.39,2.63,2.75,2.07.8-.4,1.49-1,2.33-1.33a3.76,3.76,0,0,1,2.87,0c1.63.57,2.45,2.2,3.05,3.71a63,63,0,0,1,2.14,6.15,43.56,43.56,0,0,0,2.2,6.27,6.78,6.78,0,0,0,1,1.62c.19.16.37.44.63.37.17-.31,0-.71-.05-1.05-.13-.74-.26-1.49-.38-2.24-.35-2.89-.58-5.8-.79-8.7-.21-2.53-.15-5.06-.21-7.59s-.27-5.35-.46-8a217.68,217.68,0,0,0-3.52-22.13c-1.05-5.27-1.77-10.64-3.55-15.74a62.29,62.29,0,0,0-3.38-8.05c-.95-1.92-1.84-3.9-3-5.73-1.49-2.42-3.63-4.31-5.47-6.44-2.07-2.44-3.29-5.45-4.82-8.23-1.75-3.62-3.7-7.22-4.6-11.17,2.43-6.46,4.43-13.09,6.81-19.56a229.42,229.42,0,0,1,11-25.62c3.27,4.66,7.49,8.6,10.78,13.26,2.7,3.48,5.81,6.7,7.93,10.58,2.37,4.34,4.7,8.7,7.09,13,2.71,4.72,5.17,9.59,7.45,14.54s4.23,10.12,6.48,15.12c2,4.25,4.46,8.31,6,12.78a18.2,18.2,0,0,1,.73,7.83c-.22,2-.37,3.32-2.57,1.9a12.89,12.89,0,0,1-2.89-2.58c-.68-.61-1.92-2.62-2.92-1.93a3.3,3.3,0,0,0-.39,1.52,29.14,29.14,0,0,0,.18,3.23c.27,3.38.35,6.79.64,10.17.49,6.66,2.55,13.06,4.87,19.27,2.13,5.55,4.26,11.17,4.86,17.13.57,4,.89,8.11,1.32,12.17a51.53,51.53,0,0,0,1.58,10.11c.63,2.13,1.64,4.63,3.89,5.44a6.54,6.54,0,0,0,2.57,0c1.49-.19,3-.43,4.52-.5,3.15-.31,7,.31,7.68,4,1,5.13-.72,10.34-.47,15.51a17.26,17.26,0,0,0,.36,3.58c.13.45.39,1.07.95,1a17.45,17.45,0,0,0,3.43-2c3-2.09,5.61-4.85,8.9-6.57,1.41-.82,2.66-1.89,4-2.83a19.51,19.51,0,0,0,6.12-5.77,21.76,21.76,0,0,0,2.15-6.6c1.12-4.33,1.41-8.8,2-13.22a56.86,56.86,0,0,0,0-15.69c-.58-4.15-.84-8.34-1.46-12.49-.65-4.35-1.37-8.81-3.38-12.77-1-1.83-2.41-4.81-4.94-3.87-1.18.38-1.54,1.75-2,2.75-.8,1.91-1.48,3.89-2.21,5.83-1.42,3.74-2.84,7.52-5.2,10.77a25.72,25.72,0,0,1-3.22,4.41c-1,.73-2.09-.18-2.8-.89a12.7,12.7,0,0,1-3-5.5c-.92-2.8-1.54-5.71-2.31-8.56A133.71,133.71,0,0,0,445,429a97.26,97.26,0,0,0-6.46-14.49c-2.37-4-4.5-8.21-6.67-12.35-1.55-3-3.32-5.79-4.95-8.69-3.51-6.31-6.53-12.88-10.12-19.15a69,69,0,0,0-7.11-11.3c-1.28-1.79-2.65-3.53-3.93-5.32s-2.28-3.52-3.54-5.2c-1.92-2.67-4.2-5.06-6.12-7.73-2.41-3.57-4.51-7.36-6.59-11.13,1.81-3.4,3.34-7,5.39-10.22a92,92,0,0,1,7.26-8.52,56.72,56.72,0,0,1,13.49,6.39,71,71,0,0,1,10.58,7.65,103,103,0,0,1,8.61,8.49c2.26,2.44,4.69,4.72,6.82,7.28,1.31,1.49,2.65,3,4.09,4.34s3.24,2.68,4.81,4.07c2.27,1.95,4.29,4.16,6.45,6.23a94.78,94.78,0,0,1,11.27,12.34c2.71,4,4.22,8.56,6.28,12.85a77.54,77.54,0,0,0,7.84,11.67c2.66,3.73,5.9,7,8.55,10.74,5.81,8,8.17,17.78,10.3,27.27.64,2.69,1,5.43,1.5,8.15a40.38,40.38,0,0,1,.7,5.35c0,.68-.54,2.16-1.34,1.09a17.27,17.27,0,0,1-1.91-4.58c-1.22-4-2.18-8-3.67-11.92-1.87-4.7-4.22-9.2-6.49-13.71-3.06-6.26-6.46-12.37-10-18.35-1.72-2.68-3.73-5.18-5.32-7.94-2.24-3.56-3.53-7.61-5.49-11.32a117.34,117.34,0,0,0-7.48-11.42,63.47,63.47,0,0,0-9.85-9.88,49.49,49.49,0,0,0-12.64-6.81,35.78,35.78,0,0,0-6.57-1.9c-1-.19-2.71.13-2.37,1.43.72,1.49,2.27,2.36,3.6,3.22a38.29,38.29,0,0,1,6.53,4.54,64.56,64.56,0,0,1,5.3,6.25c1.85,2.28,3.95,4.36,5.67,6.76,2.37,3.47,4.44,7.16,6.66,10.74a152,152,0,0,1,12,24.51c1.31,3.75,2.19,7.63,3.33,11.44.78,2.53,1.87,5,2.74,7.48,1.43,3.77,2.38,7.7,3.44,11.59a115,115,0,0,1,2.92,13c1.25,8.32,1.31,16.76,1.83,25.15.21,3.65.34,7.32.72,11,.44,3.19.86,6.69,3.2,9.12a8.41,8.41,0,0,0,4.44,2.62,7.31,7.31,0,0,0,6.28-2.71c2.49-3.43,2.23-7.94,2.68-12,.33-2.09.43-10.66,3.68-10.17,3.51,1.46,4.28,7.41,5.53,10.62,1.12,2.8,1.69,2.14,4.08.55a64.93,64.93,0,0,0,10.19-8.76,9.34,9.34,0,0,0,2-3.76,27.29,27.29,0,0,0,.23-4.61,85,85,0,0,0-.46-9.31c-.41-3.95-1.77-7.71-3-11.45a109.15,109.15,0,0,0-7.13-16.11c-1.84-3.34-3.89-6.58-6-9.74-1.88-2.62-3.75-5.27-5.38-8.06-2-3.3-3.31-6.95-5.18-10.31-1.95-3.61-4.49-6.86-6.49-10.45-3.18-5.68-6.31-11.39-10-16.77a81.15,81.15,0,0,0-8-11.56,59.52,59.52,0,0,0-7.28-7.69,41.1,41.1,0,0,0-7.08-5.09c-1.73-.79-3.66-1-5.37-1.87a6.9,6.9,0,0,1-1.8-1.05c-.79-.82-1.43-1.8-2.19-2.67a95.69,95.69,0,0,0-15.53-14.43c-5.24-4.09-10.56-8.09-16-11.89a70.44,70.44,0,0,0-9.9-5.06,20.83,20.83,0,0,1-6.09-3.27c1.13-1.42,2.26-2.86,3.31-4.34a23.36,23.36,0,0,1,7.18.09,38,38,0,0,1,7.65,2.64c4.1,1.78,8.21,3.55,12.34,5.27,3.34,1.34,6.68,2.72,10.05,4,3.66,1.37,7.38,2.61,10.95,4.2a121.21,121.21,0,0,0,11.63,4.47q1.58.5,3.18.93a4.35,4.35,0,0,0,2.11.19c6.11,1.91,12.24,3.76,18.36,5.61a104.76,104.76,0,0,1,13.3,4.55,125.94,125.94,0,0,1,14.58,7.92c3.79,2.12,7.72,4,11.45,6.24,1.41.83,2.84,1.7,4.22,2.59C535.43,356.89,538.24,358.93,538.34,357.81ZM409.56,305.1l.29-.46.31.18Z"/><path class="cls-6" d="M427.79,507.54c0-2.55-.69-5-1-7.55-.32-5.18-1-10.34-1.64-15.49-.25-1.69-.34-3.41-.52-5.12a40,40,0,0,0-2.29-9.46l-3.72-2.84c-1.82,4.6-2,9.61-2.8,14.45a55.36,55.36,0,0,1-1.14,7c-.3,1.19-.47,2.67-1.7,3.27a13.12,13.12,0,0,1-5.41.9c-2-.22-3.94-.75-6-.78-2.42-.17-4.86.1-7.27-.22a23.11,23.11,0,0,1-5.66-2.21c-.66-.31-1.34-.64-2-.94-.35-.13-.7-.41-1.09-.34-.54.22-.51.93-.56,1.42a6.88,6.88,0,0,0,.53,2.73c1.18,2.35,4,3.09,6.07,4.52a53.1,53.1,0,0,1,8.44,8c2.83,3.27,4.71,7.21,7.27,10.67,1.85,2.6,4.5,4.77,5.4,7.93,1.12,3.26,1.37,4.64-2.65,4.79a63.6,63.6,0,0,1-10.95-.3c-3.77-.39-7.66-1-11.42-.22-1.74.26-4.13.8-4.24,2.94-.17,1.4,0,2.83,0,4.23-.23,2.89,0,5.82-.26,8.71-.23,1.88-.84,3.41-.76,5.39a2.64,2.64,0,0,0,.16,1.31,5.38,5.38,0,0,0,2.78,1.2c1.18.28,2.3-.22,3.45-.38,1.71-.21,3.39.27,5.08.32a29.58,29.58,0,0,1,3.38.26,46.14,46.14,0,0,1,6.73.62,6.64,6.64,0,0,0,1.93.16,36.16,36.16,0,0,1,3.6-.47,7.79,7.79,0,0,0,1.8-.38,17.66,17.66,0,0,0,1.82-1.24,16,16,0,0,0,3.36-2.2c1.86-1.81,4.16-3.38,5.11-5.89a47.67,47.67,0,0,0,1.66-5.46,58.93,58.93,0,0,0,1.85-7.05c.25-1.19.42-2.42.76-3.59a24.26,24.26,0,0,0,1.38-4.41C428.09,517.16,427.74,512.32,427.79,507.54Z"/><path class="cls-6" d="M857.64,660.45c-.12-5.57.1-11.65-3-16.52-1.63-2.59-3.66-4.91-5.32-7.48-1.5-2.27-2.91-4.6-4.27-7a55.43,55.43,0,0,0-5.22-8.77c-3.08-3.86-7.12-6.79-10.48-10.39-2.19-2.35-4.33-4.77-6.41-7.22a68.37,68.37,0,0,0-6.49-7.22c-2.36-2.16-4.94-4.07-7.49-6-2.29-1.79-4.61-3.57-7-5.15a43.71,43.71,0,0,0-5.89-3.56,33,33,0,0,0-3.67-.83,130.6,130.6,0,0,0-13.52-1.65,77.91,77.91,0,0,1-10.35-.82,61.2,61.2,0,0,1-9.92-2.8c-3.71-1.18-7.44-2.3-11.15-3.49-5.49-1.56-11.23-2.42-16.47-4.75a31.31,31.31,0,0,1-11.07-8.51c-.94-1.14-1.55-2.51-2.39-3.72-1.47-2-3.88-3.07-6-4.22-2.84-1.3-5.73-2.67-8.87-3-5-.74-10,.07-15.06.16a67,67,0,0,1-7.19-.8,31,31,0,0,0-8,.32c-3.73.46-7.44,1.07-11.19,1.34-4.57.15-9.16-.19-13.73,0a126.64,126.64,0,0,0-14.52,1.72,33.1,33.1,0,0,1-2.78-5.43c3.11,0,6.23-.14,9.33-.35s6.16-.64,9.25-.84c3.36-.3,6.73-.34,10.09-.54,4.7-.33,9.38-.84,14.06-1.39,10.12-1.38,20.34-.51,30.51-.78,7.92-.23,15.65-2.09,23.41-3.46a88.27,88.27,0,0,1,35,1.53,11.32,11.32,0,0,1,3.55,1.71c1.52,1.32.28,1.56-1.09,1.49-12.27.25-27.45-.54-37.64,7.26-5.21,4.24,3.06,2.71,5.43,2.67a47.38,47.38,0,0,1,6.84.2C744,552.59,749,554.42,754,556c5.59,2,11.28,3.7,16.78,5.94,3.63,1.62,7,3.44,10.76,4.87,4.88,2.13,10.31,3.47,15.06.24a6.89,6.89,0,0,1,5.39-.89c4.39.51,8.37,2.55,12.38,4.26,1.79.7,6,2.56,6.81.23a14.76,14.76,0,0,0-.31-2.88c-.49-3.07,0-3.82,2.9-4.67,1.41-.62.66-2.38.45-3.52a40.57,40.57,0,0,0-1.64-5.82,31.7,31.7,0,0,0-9.49-13c-3-2.48-6.44-4.41-9.56-6.74-2.91-2.21-5.59-4.72-8.74-6.59a54.65,54.65,0,0,0-16-6.55c-5.59-1-11.07,1.43-16.65,1.51s-11.44,0-17.15-.34c-6.18-.51-12.38-.79-18.59-.79-14.91-.16-5.73-7.73,1.31-12a47,47,0,0,1,8.68-4.21,37.91,37.91,0,0,1,7.74-1.61,46.7,46.7,0,0,1,17.75.63,43.75,43.75,0,0,1,13.45,6.37c3.64,2.15,6.94,5.07,11,6.5,2.7.79,1.38-2.3,1.08-3.68a26.69,26.69,0,0,0-5-9.91c-2.41-2.76-5.35-5-8-7.55-3.89-3.57-8.11-7-13.09-8.88-3-.91-6.08-1.26-9.08-2.07a28.51,28.51,0,0,0-9.62-.33c-5.21.45-10.16,2.29-15.11,3.85-3.69,1.25-7.47,2.33-11.07,3.84-2.45,1.1-4.72,2.58-7.15,3.71-4.49,2.09-9.11,3.93-13.77,5.61a78.78,78.78,0,0,0-8.61,2.83,125.31,125.31,0,0,0-12.45,6.18c-4.08,2.12-8.38,3.82-12.46,5.92,2.83-2.18,5.44-4.62,8.14-6.94,2.85-2.4,5.84-4.64,8.73-7,5.39-4.23,10.49-8.83,16-13,2.95-2.23,6.12-4.41,9.74-5.35,2.39-.58,4.86-.91,7.2-1.67a7.64,7.64,0,0,0,2.32-1,6.36,6.36,0,0,0-1.79,0,38.39,38.39,0,0,0-4.87.72c-1.9.27-10,2.95-10.19-.23.3-1.67.44-3.25-1.85-2.31a28.87,28.87,0,0,0-6.53,3,30.91,30.91,0,0,0-6.07,5.47c-1.59,1.69-3.31,3.26-5,4.88-3.62,3.64-7.16,7.38-10.76,11.05-3.37,3.14-6.8,6.24-10.14,9.41-2.3,2.06-4.75,4-7.1,6a63.74,63.74,0,0,1-9.33,6.85c-3.28,2-7.08,2.89-10.77,3.85a144.94,144.94,0,0,1,9.69-13.71,135,135,0,0,1,13.44-15.24c6.71-6.75,12.78-16.57,17.78-24.68a119.4,119.4,0,0,0-10.78,10.68c-2.46,2.81-4.68,5.85-7.16,8.65-6.31,6.73-12.41,13.65-18.74,20.35a68.61,68.61,0,0,0-5.47,6.21,9.89,9.89,0,0,1-2.48,2.71c-.91.11-1.59-.79-2.11-1.42-1.72-2.52-3.72-4.84-5.33-7.43-4-7.19-6.56-15.67-13.08-21.07l-.11,0c-.23,1.32.61,2.79.94,4.08.9,2.59,2,5.17,3,7.7.8,1.9,1.59,3.84,2.37,5.74.24.83.91,1.69.78,2.56l-.09,0c-1.27-.75-2.16-2.19-3.18-3.27-2-2.34-3.94-4.75-6-7-1.16-1.24-9.8-10.59-7.2-3.78,2.85,6.35,8,11.28,12.22,16.74,2.66,3.25,5.17,6.64,7.72,10a38.28,38.28,0,0,1,4.28,6.08c1.68,2.78-.34,2.19-2.19,1.3-1.57-.71-3.12-1.51-4.69-2.22a76.53,76.53,0,0,0-11.31-3.86,213.13,213.13,0,0,0-30.08-6.38c-6.38-.76-12.84-.54-19.23-1.2,6.69,1.24,13.21,3.3,19.88,4.63,3.8.78,7.71,1.13,11.45,2.21a83,83,0,0,1,9.11,3.49c7.47,2.89,14,7.58,20.95,11.49a54.75,54.75,0,0,0,7,3.77,18,18,0,0,1,6.65,4.19,29.14,29.14,0,0,1,4.37,6.75c.53,1.36,1.73,2.78,1.34,4.3-1.33,3.23-9.11,3.2-12.2,3.48-11,0-21.84,2.27-32.58,4.48-5.81,1.2-11.72,2.05-17.4,3.79-4.59,1.46-9.06,3.35-13.56,5.09-1.19.45-2.42.9-3.63,1.32a5.54,5.54,0,0,0-1.79.78c.27.49,1.4.32,1.91.37,1.47,0,3-.16,4.45-.32,4.8-.49,9.59-1.24,14.34-2.09,5.44-.77,10.85-1.86,16.26-2.84,6.49-1,13-1.78,19.56-2.47a86.12,86.12,0,0,1,18.7-.92c6.35.36,10.27,2.38,13.87,7.7,1.87,3.19,2.75,6.89,3.56,10.47a12.06,12.06,0,0,1,.29,2.46,6.37,6.37,0,0,1-2.11,3.83c-3.44,3.19-8.43,3.43-12.8,4.46-6.55,1.31-13,3-19.45,4.82a89.92,89.92,0,0,0-13.11,4.65c-3.94,1.85-7.38,4.55-10.88,7.09-.65.46-1.3,1-1.93,1.44-.4.25-.78.84-1.28.76-.27-.95.35-2,.56-2.95a42,42,0,0,0,1.58-5.46c.2-1.77-1.83-2.64-3.32-2.67-4.25-.1-7.79,2.78-11.22,4.92a32.92,32.92,0,0,1-6.51,3.68c-2.34.95-4.85,1.54-7.07,2.75-2.79,1.58-4.9,4.1-7,6.5-3,3.53-5.86,7.37-7.29,11.81a38.06,38.06,0,0,1-5.15,12.19,23.89,23.89,0,0,1-5.24,6.42c-3.56,3-8.18,4.31-12,6.9-3.43,2-5.75,5.3-7.49,8.8a33,33,0,0,0-2.78,6.26c-.09,2.28,2.54,3.21,4,4.44a43.69,43.69,0,0,1,6.32,5c4.12,4.94,5.72,11.48,6.67,17.71.64,3.77.58,7.61,1.14,11.38.81,5.68,4,10.68,6.54,15.71,1,1.61,2.15,4.44,2.62.49s.34-7.73.76-11.56a52.81,52.81,0,0,1,3.45-13.62A111,111,0,0,1,549,697.53c2.15-3.59,4.65-7,7-10.4a91.9,91.9,0,0,1,6.63-8.82,34.65,34.65,0,0,1,7.71-6.52c4.85-2.91,10.13-5.23,14.6-8.74a16.41,16.41,0,0,0,4.31-6.63c.46-1.38,1.54-3,.76-4.42a5.7,5.7,0,0,0-3.12-1.77c-.89-.23-2-.39-2.45-1.35-.46-2.22,2-4.47,3.65-5.6s3.75-1,5.66-1.12a17.19,17.19,0,0,0,9.5-3.79c2.06-1.47,4.21-2.82,6.32-4.2a16.46,16.46,0,0,0,2.87-2.16c2.45-3.7-5-5-7.38-4.58-3.51.33-6.78,1.82-10.05,3s-6.44,2.24-9.59,3.53a80.17,80.17,0,0,0-19.15,12.58c-3.4,2.92-6.67,6.07-10.43,8.53-1.09.63-2.1,1.68-3.35,1.9l-.13-.07c-.1-1.13,1.12-2.17,1.64-3.11,1.34-1.9,2.82-3.94,4.19-5.82,3.12-4.18,6.25-8.64,10.81-11.37s9.61-4.32,14.48-6.3c5.87-2.57,11.74-5.21,17.6-7.79,3.86-1.84,7.89-3.36,11.7-5.31S620.2,613,624,611a40.65,40.65,0,0,1,9.26-3.09,59.33,59.33,0,0,1,7.69-1.39c1.66-.15,3.32-.26,5-.29a9.74,9.74,0,0,1,3.76.34c5,2.92,7,9,8.4,14.34a43.14,43.14,0,0,1,1.62,7.61c0,2.37.34,5.18-.86,7.32-4,5.07-14.92,1-20.51,1.58-3.8.77-5.38,4.63-7.45,7.46a64.76,64.76,0,0,1-10.07,11.54c-4,3.65-9.15,5.78-14,8A149.44,149.44,0,0,0,592.44,672a47.62,47.62,0,0,0-8.31,5.91,31.2,31.2,0,0,0-6.19,12.19c-2.57,9.58-4.28,19.4-7.43,28.82-1.67,4.87-4.22,9.37-6.25,14.09a52,52,0,0,1-3.76,7c-1.4,2.06-3.13,3.87-4.65,5.84-2.64,3.31-4.74,7-7.05,10.56-4.64,7.2-6.74,12.6.68,19A75.54,75.54,0,0,1,559.64,787c4,6.29,7.65,12.84,12.42,18.61,1.13,1.36,2.08,3,3.65,3.89,1.34.39,2-.78,2.15-1.93a19.6,19.6,0,0,0-.81-6.12c-.62-2.54-1.27-5.1-1.66-7.68-1.51-8.49.25-17.09,3-25.14,2.11-7,5.89-13.26,8.62-20,3.32-7.61,6.09-15.73,11.39-22.25,3.72-4.69,9.55-6.87,13.78-11,4.35-4.32,8.23-9.1,12.74-13.26,2.19-2.05,4.39-4.09,6.69-6l2.19-1.86c.36-.35.9-.66,1-1.16l0,0c-1.51.29-2.85,1.64-4.18,2.41-2,1.36-4.13,2.59-6.26,3.75-4.75,2.92-5.39,1.52-3.8-3.3,1.16-3.22,2.78-6.27,4.21-9.37.41-.85.83-1.74,1.22-2.59a2.37,2.37,0,0,0,.2-2.27c-2.71-2.76-8.31,2.45-10.53,4.2-3.06,2.6-5.94,5.48-8.86,8.25-.83.76-1.67,1.6-2.55,2.31-.41.28-1,.8-1.49.54-1.36-1.85,2-7,2.91-8.81,3.36-6,8.24-10.83,13.43-15.23,4.51-4,9.4-7.55,13.51-12,5.46-5.77,10.85-12.19,18.32-15.35a30.46,30.46,0,0,1,7.62-1.56c1.48-.12,3.16-.38,4.36.69,2.73,2.35,2.69,6.31,3.31,9.59.33,2.09.77,4.18,1.11,6.26a13.51,13.51,0,0,1,.27,2.19,5.33,5.33,0,0,1-1.66,2.91,21.07,21.07,0,0,1-6.85,4.69c-3.63,1.36-7.48,2.13-11,3.75-2.35.94-3.81,3.19-5,5.3-1.34,2.4-1.62,4.83,1.33,6a16.78,16.78,0,0,0,3.26,1,5.6,5.6,0,0,1,2.2.72c2.22,2,.69,6.09-.56,8.33-2.42,3.65-5.37,6.93-7.83,10.55A104.16,104.16,0,0,1,633,716.82c-3,3.76-6.26,7.39-9.07,11.32a163.56,163.56,0,0,0-8.26,14.23,178.37,178.37,0,0,0-12.24,26c-2.19,5.54-4.28,11.12-6.8,16.52-2.14,4.91-4.19,9.89-6.73,14.62-1.2,2.4-2.44,4.8-3.51,7.27a19.26,19.26,0,0,0-1.18,3.53,10.15,10.15,0,0,0,.47,5c2,5.21,5.89,9.34,9.28,13.67a92.79,92.79,0,0,0,13.71,14.37,27.31,27.31,0,0,0,2.8,2c3.49,1.65,2.08-4.85,1.93-6.55a84.41,84.41,0,0,1-.75-11.35c.13-6.91,3.22-13.32,5.7-19.65,2-4.61,3.9-9.33,6.13-13.85,1.37-2.69,3-5.26,4.49-7.88a173.31,173.31,0,0,0,12.21-21.87c.65-1.42,1.26-2.87,1.87-4.3.42-1,1.45-2.67.15-3.47a41.75,41.75,0,0,1,5.48-2.73,6.34,6.34,0,0,1,3.55-.6,7.13,7.13,0,0,1,4.92,4.43c1.16,3.84.73,8,.19,11.87-1.36,6.73-6.68,11.63-9.92,17.46a102.94,102.94,0,0,0-7.74,16.63c-1.51,3.89.54,2.1,1.93.18,3.72-5.11,6.62-10.77,9.87-16.18,2.69-4.64,5.88-9,8.78-13.52,4.15-6.07,6.91-13,11.45-18.84.81-1,7.6-9.12,6.51-4.48-2.24,5.13-6.38,9.36-9.74,13.79A131.15,131.15,0,0,0,655,784.6c-3.38,5.61-6.54,11.4-8.25,17.76-2.45,7.12,1.38,2.92,3.7,0a57,57,0,0,0,5.55-8.84c4.14-8,7.77-16.38,13.32-23.55,1.84-2.51,3.62-5.1,5.4-7.66a19.71,19.71,0,0,1,2.73-3.38c2.16-1.8,2.77.35,2.63,2.31-.32,3.25-1.1,6.43-1.67,9.64-.85,5.12-1.46,10.28-2.52,15.35-.66,3.21-1.28,6.46-1.69,9.71-.49,3.07-.62,6.43,1.42,9,2.49,3.33,5.88,5.85,8.72,8.86a25.79,25.79,0,0,1,5,7.77c1.86,4.79,2.19,10,3.2,15s2.23,10.21,1.84,15.42c-.52,6.42-2.54,12.6-4.77,18.6a47.28,47.28,0,0,0-2,6.87c-.25,1.54-.28,3.1-.52,4.64-.36,1.73,1.63,1.82,2.73,1,1.64-1.07,2.61-2.87,3.59-4.52s2-3.33,2.79-5.08c1.91-4.67,2.86-9.69,4.27-14.52.28-1,.53-1.93.83-2.86.19-.54.46-1.2,1.06-1.37,5.47-.08,7.07,20.58,8.12,25.11.36,1.35.32,3,1.48,4a5.22,5.22,0,0,0,3.45.2,5.85,5.85,0,0,0,2.3-1.77c3.64-4,5.52-16.09,3.42-21.1-2.7-6.91-7.17-13-9.78-19.9a56.32,56.32,0,0,1-2.88-7,42.87,42.87,0,0,1-1.17-9.85c0-4.91-.17-10.26,2.48-14.59.65-1.06,1.32-2.7,2.85-2.38A6.2,6.2,0,0,1,716,810a40.53,40.53,0,0,1,3,4.26c1.35,2,3,3.84,3.94,6.15a28,28,0,0,1,2.06,8.94c.29,2.64.47,5.3.5,8,.19,6.38-.2,12.79.45,19.16a41.67,41.67,0,0,1,0,6.32c-.06.8-.13,1.62-.2,2.42a2.84,2.84,0,0,0,.06,1.33c.36-.07.42-.71.56-1a23.45,23.45,0,0,0,.73-3.62,101.76,101.76,0,0,0,.84-11c.44-8.42.43-16.86.4-25.28a33.61,33.61,0,0,0-3.39-14.35c-1.33-2.58-3.07-5-4-7.75-1.22-2.56-.6-4.88,2.16-5.89a12,12,0,0,1,3.52-.53,4,4,0,0,0,2.93-.82c3.84-4.22,1.37-14.22-.65-19-1.64-3.8-4.71-6.71-7.36-9.81-4.16-4.76-6.22-11-7.31-17.11-.83-3.91-.62-8.29-2.56-11.86-1.16-2-3-3.46-4.5-5.22a6.63,6.63,0,0,1-1.12-3.78c-.31-4.16-2.78-7.93-4.62-11.58A105.1,105.1,0,0,0,692,703.34c2,2,3.82,4.2,5.92,6.12a50.6,50.6,0,0,0,5.92,5.42,85.19,85.19,0,0,1,7.51,6.41c2.43,2.46,4.57,5.18,6.89,7.74,3.45,3.93,7.25,7.6,10.21,11.93,2.77,4,4.7,8.5,7.37,12.55a155.2,155.2,0,0,1,11.15,19c2.47,5.39,4.19,11.09,6.47,16.56,2.89,6.8,5.38,13.76,7.63,20.8a222.13,222.13,0,0,0,7.32,21.21,70.44,70.44,0,0,0,5.71,10.35c2.33,3.37,4.88,6.64,6.54,10.42a51,51,0,0,1,1.87,5.55c.48,1.28.62,3.63,2.51,2.74s3.24-2.74,4.77-4.2a26.86,26.86,0,0,0,3.79-4.25,5.9,5.9,0,0,0,1.27-2.44c1-3.51-3.66-7.64-5.8-10a31.5,31.5,0,0,1-4.5-6c-4-7-6.24-14.82-9.55-22.13-6.57-14-13.49-27.75-20.18-41.64-1.88-3.66-3.58-7.42-5.47-11.07-1.73-3.12-3.72-6.11-5.53-9.2-1.7-2.81-3.19-5.76-5-8.52-2.41-3.62-5.08-7.07-7.81-10.45-3.26-4.07-6.65-8-10.21-11.83-2.4-2.59-4.52-5.42-6.8-8.11-2.16-2.5-4.56-4.78-6.94-7.07-2.9-3-5.74-6-8.76-8.89-4.61-4.5-10.15-7.85-15.07-11.95-3.77-3.33-6.72-7.58-10.85-10.5,1.85-10.62.79-21.54-1.49-32-1-4.9-2.81-9.63-4-14.5a39.9,39.9,0,0,0,8.58,6.1c4.13,2.5,8.29,5,12.48,7.38,4.86,2.7,9.34,6,14,9.07,2.61,1.66,5.42,3.06,8,4.75,3.71,2.37,7.29,5,10.82,7.62,5.88,4.6,11.09,10,16.68,14.93,3.09,2.73,6.39,5.24,9.55,7.89s6.23,5.63,9.41,8.36c4.18,3.72,8,7.85,11.79,11.94,3.53,3.74,7.17,7.41,10.35,11.46,5.67,6.91,10.1,14.72,15,22.17,3.74,5.77,7.2,11.8,11.43,17.23,1.17,1.55,5.89,7.13,6.29,4.26-.21-1.24-.63-2.46-1-3.67A133.21,133.21,0,0,0,801,733c-.82-2.12-7.45-12.09-5.11-13.45.72-.25,1.48.18,2.17.38,1.17.41,2.37.82,3.51,1.34,4.82,2.38,8.63,6.35,13.24,9.08,1.73,1.09,4.71,2.54,2.88-1.26a29.9,29.9,0,0,0-9.1-11.92,106.32,106.32,0,0,0-9.5-6.51c-2.43-1.6-4.78-3.33-7.17-5-4.67-3.21-9.28-6.52-13.65-10.13-3.44-2.83-7.14-5.37-10.45-8.36-6.16-6-13.13-10.93-20-16-4.47-3.5-9.39-6.37-13.95-9.73-2.53-1.93-4.86-4.16-7.46-6-3-2.13-6.22-4-9.28-6.09-6.9-4.6-13-10.41-20.16-14.56A170.8,170.8,0,0,0,680,626.09c-2.07-1-4-2.36-6-3.52a41.94,41.94,0,0,1-9.39-6.49c-1.72-5.59-3.2-11.26-5.21-16.76.59.29,3.17,2.11,3.72,2.08,1.14.23,2.29.52,3.41.85A40.89,40.89,0,0,1,673.1,605c4.49,2.17,8.66,4.94,12.94,7.47,3.69,2.19,7.54,4.15,11.11,6.54,3,2,5.88,4.23,8.84,6.31,3.65,2.41,7.07,5.15,10.52,7.82,1.75,1.21,4.06,3,6.26,2a9.08,9.08,0,0,0,1.16-1.16,1.89,1.89,0,0,1,2.12-.24c4.63,2.52,8.15,6.62,12.11,10,3.53,3.06,7.11,6.1,10.48,9.34a92.48,92.48,0,0,0,8.24,7.6c2.87,2.26,5.83,4.41,8.81,6.53,3.33,2.38,6.9,4.81,11,5.54,2.53.32,4.52-.45,3-3.38a13.26,13.26,0,0,0-3.86-5.13c-4-3.19-8-6.4-11.93-9.76-3.85-3.2-8-6-12.11-8.89-3-2-5.91-4.26-9-6.25-7.65-4.79-15.62-9-23.66-13.13-4.38-2.32-8.14-5.56-12.21-8.34a240,240,0,0,0-22.17-12.5c-8.44-4-16.87-9.65-26.59-9.31-1.35-3.33-2.81-6.63-4.18-10,6.1,1.83,12.25,3.54,18.29,5.57,5,1.67,9.81,3.77,14.69,5.68a206.48,206.48,0,0,1,24.25,11.24c4,2.29,7.88,5,11.86,7.37a151.56,151.56,0,0,1,14,10.16c3.6,2.82,7.37,5.43,11.06,8.11,7.69,5.72,15.71,11,23.27,16.9,6.08,4.18,11.72,8.92,17.35,13.67,6.72,5.76,15.35,12.12,16.56,21.5.21,3.62-.17,7.36,1.07,10.83,1.38,3.68,4.29,6.58,7.28,9a90.56,90.56,0,0,0,9.19,6.31c5.09,3.5,10.06,7.43,13.62,12.56a68.19,68.19,0,0,1,7.3,13.12c1.35,3.12,1.78,6.84,4.31,9.29a2.26,2.26,0,0,0,3.15-.14,8.85,8.85,0,0,0,1.73-2.55,18.19,18.19,0,0,0,1.12-7A30.44,30.44,0,0,0,853,729a63.65,63.65,0,0,0-2.06-6.77c-1-2.68-2.5-5.13-3.64-7.75-1.34-2.81-2.37-5.76-3.68-8.58s-3.12-5.75-4.69-8.61c-2.48-4.56-4.3-9.45-6.91-13.95-2.68-4.66-5.51-9.25-8.59-13.65-2-2.89-4.33-5.54-6.41-8.37-.48-.81-2.89-2.93-.55-2.83,1.79-.19,5.39.31,2.08-2.1-6.23-5.42-14.19-7.93-21.72-11-9.47-3.76-18.9-7.61-28.27-11.62-8.9-4-16.19-10.65-23.85-16.54-5-3.59-9.57-9-9.6-15.47.13-2.08.28-6.11,3.36-5,5.12,1.15,9.69,3.82,14.08,6.6,4.71,2.78,9.51,5.46,14.38,8,1.22.58,10.21,5,10.67,3.26-.51-1-1.57-1.54-2.35-2.28-1.88-1.54-3.77-3.08-5.72-4.52-5.86-4.25-12-8.29-18.81-10.82-8.37-3.23-17.42-4-26-6.4-4.84-1.31-9.55-3.06-14.27-4.74-4.17-1.3-8.44-2.28-12.71-3.22-6.17-1.67-12.64-2-18.73-4a74.42,74.42,0,0,1-8.8-3.81,57.54,57.54,0,0,0-12.74-4.34c1.12.74,6.86,5.33,8.12,5.45,4.94,2,10.13,3.36,15,5.51a42.11,42.11,0,0,1,7.36,3.9c.93.62,4.58,3.43,1.88,3.82-7.53-.41-14.86-2.38-22.2-4-2.85-.57-5.76-1.08-8.58-1.8a59.2,59.2,0,0,0-7-1.54c-1.36-2.84-3-5.57-4.47-8.35-1.41-2.61-2.7-5.29-4.21-7.84-3.08-4.62-6.37-9.1-9.35-13.78,1,.62,4.22,3.18,5.24,3.18a34.3,34.3,0,0,1,4.12,1.24,48.55,48.55,0,0,1,7.58,4,131.52,131.52,0,0,0,24,10.92c3.36,1.24,6.6,2.83,10,3.92a97.52,97.52,0,0,0,18.51,4c6.22.84,12.49,1.3,18.7,2.14,5.43.64,10.78,1.82,16.17,2.68a215.8,215.8,0,0,1,23.94,5.7,119.5,119.5,0,0,1,22,9.77,134.79,134.79,0,0,1,27.56,19.65c4.3,3.9,7.84,8.53,11.81,12.74,3.19,3.17,6.35,6.38,9.8,9.27,2.35,2.12,4.73,4.24,7.19,6.23,2.91,2.4,5.91,4.84,7.94,8.06s1.93,7,1.36,10.62c-.22,2-1.74,11.91,2.13,9.81a5.59,5.59,0,0,0,2.13-2.05,25,25,0,0,0,2.42-5.68A19.43,19.43,0,0,0,857.64,660.45Zm-227.74-120a9.77,9.77,0,0,0-1.13.44,23,23,0,0,1-.74-4.43c3.5-2.29,7.5-3.57,11.35-5.14a47.83,47.83,0,0,0,7.11-4c-.33,1.52-1,4.71-1.39,6.17a6.06,6.06,0,0,1-1.08,2.65,15,15,0,0,1-6.86,3.14C634.79,539.85,632.28,539.8,629.9,540.41Zm37.79,145.66a33.63,33.63,0,0,0,3.63-9.12c2,15.75,3.38,12.63-4.4,27.14-2.48,4.6-5,9.26-8.5,13.17-3,3.29-6.46,6.15-9.49,9.41a95.39,95.39,0,0,0-7.89,9.81c4.69-11,12.82-20,17.48-31,2-4.34,3.2-9,5.27-13.34A61.94,61.94,0,0,1,667.69,686.07Z"/><path class="cls-6" d="M835,779.71c-.12-1.26-.52-5.61-2.5-3.57a36.94,36.94,0,0,0-2.62,4.48c-1.15,2-4.17,7.41-6.93,6.36a5.93,5.93,0,0,1-1.54-2.17,39.76,39.76,0,0,1-2.23-5.25,108,108,0,0,0-6.24-14.9c-1.08-2.17-3.74-4.95-2.33-.25,1.59,6.23,3.85,12.27,5.92,18.36a30.81,30.81,0,0,1,1.81,6.79,21.75,21.75,0,0,1-2.79,12.18c-1.59,3-1.56,6.59-2,9.9,3.61-1.83,9.53-4.54,12.39-7.4a17.46,17.46,0,0,0,6.39-9.79C833.7,789.66,835.13,784.73,835,779.71Z"/><path class="cls-6" d="M511.26,630.43a117.5,117.5,0,0,1,15-10.71c2.53-1.5,5.21-2.74,7.73-4.26,2.86-1.65,5.63-3.51,8.55-5.07a81.14,81.14,0,0,1,8.74-3.74,48.67,48.67,0,0,1,6.75-2.17,50.53,50.53,0,0,1,7.58-.6c.94,0,1.9-.08,2.83-.18a1.92,1.92,0,0,0,1.72-.82c.76-2.78-2.45-5.6-4.5-7-2.9-2-6.42-2.71-9.83-3.32-5.93-1.23-12-1.33-18-2.48-4.41-1.29,1.54-8.19,3.5-9.59a50.47,50.47,0,0,1,7.54-5.07c.51-.73,8.45-2.34,9.34-2.64a107.86,107.86,0,0,1-13.42,1.17,94.49,94.49,0,0,1-11.25-1.17A85.68,85.68,0,0,0,522,571.16a128.77,128.77,0,0,0-13.89.34c3.91-1.18,8-1.39,12-1.91a63.09,63.09,0,0,0,10.14-2.41,32.81,32.81,0,0,0,5.86-2.48c1.88-1,3.94-2.25,4.64-4.38.74-3.59-1.49-7.08-3.57-9.83a26.78,26.78,0,0,1-3.51-6.29c-1.14-3.15.62-6.38,1.5-9.38.91-2.69,1.71-5.44,2.87-8a23.25,23.25,0,0,1,1.57-3c.52-.33,3.24-7.87,3.54-8.55-4.43.31-8.93.25-13.3,1.13-3.39.58-6.62,1.89-10,2.44a44.63,44.63,0,0,1-7.31.42,7.3,7.3,0,0,0-4.46,2.51c-3.44,3.81-4.5,9-5.54,13.9a86.6,86.6,0,0,1-3.67,12.93c-1,2.67-2.41,5.16-3.56,7.76-2.26,5.15-4.33,10.47-4.74,16.12-.08,1.43-.11,3.45,1.54,4,2.92.27,5.66-1.38,8.31-2.39a8.48,8.48,0,0,0-4.26,6.22c-.8,4-.39,8.17.16,12.2.83,5.59,1.81,11.15,3.18,16.63a88.5,88.5,0,0,1,1.81,11c.33,3.53.37,7.08.87,10.59a10.34,10.34,0,0,0,1,3.92C505.2,636.56,509.59,631.66,511.26,630.43Z"/></g><g id="レイヤー_3" data-name="レイヤー 3"><path d="M844.54,691.38c-1.3-4.89.14-10.4-2.83-14.72-3-5.6-4.07-12.31-8.19-17.18a71.44,71.44,0,0,0-13.5-9.35,50.77,50.77,0,0,0-5.56-2.57,3.34,3.34,0,0,0-1.1-3.46c-4.8-5.77-9.81-11.54-15.72-16.19a210,210,0,0,0-32.52-16c-10.35-3-19.51-8.81-28.25-15a4,4,0,0,0-2.85-1.53,2.75,2.75,0,0,0-1.49-.41c-3.75.17-4.38,4.84-3.13,7.62,4.68,14.58,30.92,28.91,44.74,34.69,11.84,4.37,22.73,11,34.8,14.77a63,63,0,0,1,20.36,12c1.59,2.21,2.37,5,3.45,7.53,1.41,3.49,3,7,4.59,10.33a63.43,63.43,0,0,0,5.32,24.24c3.52,9.21,15.59,16.35,12.61,27.21-4.19,8.49-8.33,17.11-13.17,25.26-1,1.66-3.46,3.48-4.11,5.43a7.41,7.41,0,0,1-.28-.78c-4.92-9.69-7.12-20.69-11.29-30.71a78.91,78.91,0,0,0-19.61-27.27,2.76,2.76,0,0,0-.09-1.1,57.83,57.83,0,0,0-5.42-13.6c-5.63-12.6-18.46-18.55-29.93-24.7-6.7-5.28-14.9-9.49-21.62-14.91-4.25-3-7.63-6.83-11.41-10.3-2.71-2.44-6-4.39-8.22-7.31a3.24,3.24,0,0,0-5.7-1.56,4,4,0,0,0-.43.92,2.81,2.81,0,0,0-.31.29c-2.39,5.2.4,11.81,3.77,16.06,7.59,8.83,16.85,16,25.62,23.6,6.87,6.86,13.22,14.39,21.42,19.74,8,5.46,17.52,8.5,24.91,14.91,11.05,8.08,18.7,20.26,23.36,33,3.18,10.38,6.59,20.73,11.66,30.35-.65,5.31-2.6,10.62-4.28,15.64-2,5-3.31,11.55-8.24,14.77-2,1.81-4.88,2.21-6.93,4-5.67,4.38-8.05,11.48-12.78,16.68,0-10.08-2.61-19.9-5.75-29.42a218.59,218.59,0,0,0-28.09-66c-4.66-8.43-10.88-15.78-17.24-22.95a117.52,117.52,0,0,0-23.78-23c-7.76-5.56-14.3-13-22.92-17.21-9.56-4.33-10.08,7.79-8.26,14,2.12,9.43,7.71,17.56,14.25,24.49,4.33,4.9,9.4,9,14.25,13.3,7.07,6.24,11.87,14.63,18,21.77,3.75,4.5,7.94,8.64,11.75,13.09a231.82,231.82,0,0,1,19.59,29.56c6.85,15.2,9.23,31.55,12.42,48,1,7.62,5.61,14,7.47,21.34-6.65,7.89-16.05,12.94-24.19,19.15,1.29-15.2-2.06-30.09-5.79-44.72-2.56-15.42-6.83-30.72-14-44.68-6.1-11.49-12.83-23-22.15-32.19-3.21-2.39-10.46-10-14.55-7.87-1.75.94-1.94,3-1.47,4.79a58.16,58.16,0,0,0,2.1,8.44c3.3,9.42,8.35,18.06,13.86,26.32,9.67,14,11.31,31.22,12.4,47.73a68.15,68.15,0,0,0,8.2,27.16c4.33,6.81,8.11,14.41,4.65,22.5-4.21,2.21-9.16,3-13.38,5.33-4.76,2.84-10.15,4.78-15.48,3.38a35.7,35.7,0,0,1,.88-3.53c3.65-14,1.24-28.39-.06-42.51-.49-9.05-.1-18.79-5.45-26.59-1.72-3.61-6.38-7.79-10.19-4.46a8.76,8.76,0,0,0-2.19,4.71,65.31,65.31,0,0,0-.41,19.59c.8,8.62,4.62,16.24,8.48,23.86,2.18,4.31,2.73,9.47,5.36,13.49a51.24,51.24,0,0,1-2.2,12.4,6.46,6.46,0,0,0-.24.86,43.09,43.09,0,0,0-15.31-2.71c-6.56-.08-13.14.24-19.48,2.08-5.5,1-11.85,4.38-16.68.07-4-2.16-7.72-4.72-11.94-6.38a3,3,0,0,0-2-2.16c-10.87-7.92-23.05-15.31-32.49-25,5.87-20.87,18.69-39.62,28.46-59,3.81-8.14,10.12-15.52,11.39-24.6,1.25-6.91-5.47-14.77-12.54-11.35-6.46,2.23-9,9.07-12,14.61-6.4,12.88-12.71,25.82-20.53,37.93-8.9,12.19-8.82,23.47-4.59,37.47-11.49-6.13-19.69-17.31-25-29,2.39-8,6.83-15.32,9.79-23.15,8-18.34,13-38.15,24.79-54.75,8.19-10.55,16.87-20.72,25-31.37,3.51-5.12,9.41-11,7.67-17.72-3.76-8-15.78.15-20,4.28-7.93,6-11.15,16.28-19.5,21.65a64.2,64.2,0,0,0-24.79,24.66c-12.22,18.66-21.28,42.43-14,64.63-6.86-6.88-12.85-14.51-19.3-21.78a34.44,34.44,0,0,1-6.59-11.9c-2.59-5.89,1.61-11,4.68-15.71a169.09,169.09,0,0,0,13.51-24c6.2-11.84,9.18-24.78,12.64-37.55,1.2-4.78,5.23-7.79,8.84-10.78,10.1-8.44,21.3-15.32,31.83-23.15,12.74-8.89,22-26.16-1.53-25.34-8.31,0-16.63,2.46-22.25,8.87-3.67,3.59-7.16,7.5-9,12.38a20.64,20.64,0,0,1-2.09,4.49c-1.16,1.07-2.74,1.5-4.06,2.33C554.26,675.28,537,699.7,534.4,730.72c-13.22-20.36.75-32.89-24.66-48.77-.27-.29-.7-.6-.49-1,1.44-3.14,3.25-6.18,5-9.58,4.76-9.22,11.57-17.12,18.49-24.77a206.21,206.21,0,0,1,23.35-23.38c4.48-3.93,28.35-19.83,13.57-23.48-13.14.09-25.41,5.78-37,11.42-10.27,4.93-20.78,10.29-29.05,18.24,0-8,0-16.08-1.37-24-1.38-8.11-4.84-15.83-5-24.14,8.23-1.63,16.07-4.71,24.44-5.59,10.91-1.46,22-.33,32.89-2.24,10.47-2.43,22.93-4.69,29.66-13.88,1.54-2,1.64-5.16-.68-6.61-11.4-4.28-24.74-1.6-36,2.26-5.8,2.32-10.77,6.24-16.45,8.81-5.62,2.74-12,3.07-18.11,4.22a88.93,88.93,0,0,0-20.34,6.14c1.12-13.39,8.43-25.17,12.39-37.85,3.23-10.08,4.9-21.41,12.11-29.58,2.14-2.38,4.59.34,6.73,1.33,10.82,6.72,64.68,17.25,74.91,11.27,2.54-2.42.08-5.61-2-7.33-3.24-3.09-6.67-5.94-10.19-8.69-14.25-13.14-31.45-9.15-48.89-10.67,8.34-8.47,14.78-18.52,16.84-30.37,4.77,2.7,9.45,5.77,14.78,7.22a44.56,44.56,0,0,1,9.78,3.37c7.89,4.31,15.45,9.48,21.42,16.28,7.47,9.5,14.46,19.8,17.47,31.68.85,4.42,6.68,2.94,6.24-1,.07-.08.16-.15.23-.24a66.18,66.18,0,0,0,6.35-11.28c3.82-8.15,5.58-17.22,8.19-25.93a30.48,30.48,0,0,1,8.3-11.44c2.66-.73,5.36-.49,8.21-.43a76.37,76.37,0,0,0,14.58.54c-4.75,3.33-7.55,8.7-12.16,12.18-1,1.05-2.38,1.94-2.36,3.58a3.15,3.15,0,0,0,3.09,3.14c1.63,0,2.5-1.22,3.57-2.21,4-2.92,6.51-7.42,10.25-10.65,6.24-5.29,15.52-4.52,21.91-9.71,5.36-3.49,10.68-7.56,17.06-8.88,3.58,1.73,6.66,4.35,9.74,6.81-10.8.8-19.93,7.77-28.06,14.35a3.43,3.43,0,0,0,2.57,5.77c10.12-.45,19.83-3.49,29.67-5.61,5.46-.84,11.09-1.77,16.59-.84,7.82,2.07,15.08,6.08,21.89,10.35,6.37,4.4,10.52,11,15.44,16.87,1.9,2.34,4.36,5.13,5.59,8.27-7.8-3.09-15-7.75-23.26-9.73A100.77,100.77,0,0,0,744,502.52c-10.09-.77-19.29,4.21-27.71,9.15-1.9,1.2-4.18,2.07-5.55,3.91-4.9,9.67,25.5,7.09,30.76,7.4,13.57.06,27.11-1.56,40.63.23,6.36,1.46,11.35,6,16.78,9.41,4.55,3.27,9.53,5.93,13.78,9.58,10.5,11.09,15.2,28.48,15.18,43.55-2.27-1.65-9.74-7.39-13.56-6.77a18.72,18.72,0,0,0-4.55-1.38c-1.72-.36-3.91-.7-6-1.12a3.13,3.13,0,0,0-4.67,1c-1.05-.11-2.11-.2-3.16-.33-2.1-2.31-5.56-4.44-7-5.83-7.16-5.56-14.75-10.85-23.23-14.19a60.12,60.12,0,0,0-18.17-4.92c-9.12-1.6-18.55-2.58-27.7-.6a5.67,5.67,0,0,0-2.24,6.19c1.84,3.37,5.71,4.93,8.86,6.83,7.46,3.7,15.11,7.33,23.23,9.28,6.7,1.69,13,4.73,20,5.52,7.85,1,15.58,2.66,23.43,3.67a3.13,3.13,0,0,0,2.41.27c1.74.19,3.48.35,5.24.44a2.89,2.89,0,0,0,3-.83c3,.59,6.56.65,8.64,1.82,5.74,3.55,9.75,8.92,12.9,14.78,8.44,14.67,18.37,27.69,26.92,42.42,2.8,6,10,11.84,6.78,18.61a32.86,32.86,0,0,1-6.05,10.12c-2.25,2.75-10.6,9.33-5.86,12.58,4,2,5.26-3.39,7.84-5.69,5.84-5.75,11.05-13.45,11.23-21.89-1.15-7.5-7.12-13.28-10.38-20-4.78-8.29-10.33-16.05-15.79-23.89-3.26-5.81-6.89-11.51-10.48-17.37,6.15.1,4.33-8.45,4.57-12.54.07-6.1-1.29-12-3-17.81-2.56-9.08-6.26-18.28-12.84-25.22-8.35-7.35-18.22-12.93-27.5-19,4.9-7.6-11.05-22.2-15.52-28.54-8.56-9.17-20.64-15.17-32.66-18.38-12.37-1.62-24.49,2.69-36.47,5.2,4-2.74,8.26-5.31,13.16-6.07a36.66,36.66,0,0,1,6.44-.53c2.13.07,4.85-.1,5.56-2.53.52-1.63-.47-3.2-1.61-4.28a66.94,66.94,0,0,0-8.65-7.4c-2.81-1.87-5.64-4.55-9.13-4.87-8.41.8-15,6.38-22,10.72a3,3,0,0,0-2.53-1.38,14.34,14.34,0,0,0-6.41,1.21,63.22,63.22,0,0,1-11.65,2.16c-7.12.44-14.17-1.45-21.3-.51-5.05.43-8.19,5.1-11,8.84-3.77,5.1-5.12,11.32-6.61,17.35a84.22,84.22,0,0,1-8.56,21.72,92.22,92.22,0,0,0-22.22-33.1,95.62,95.62,0,0,0-18.49-12.43c-5.13-2.63-11-3-16-5.85-2.9-1.43-5.56-3.25-8.42-4.73-1.37-.72-3.06-1.68-4.62-1-2.95,1.33-3.24,5.1-4.15,7.84a41.25,41.25,0,0,1-6.73,15.84c-3.32,4.79-8,8.56-11,13.56-4.07,10,26.51,5.83,32.19,7,11.44.42,20.22,7.87,28.43,15.23-19.3-.08-38.5-3.89-57-9.14a56.84,56.84,0,0,1-6-2.64c-3.29-1.73-7.12-4.88-11.24-3.1-10.17,5.47-12.63,19.29-15.89,29.47-2.35,9.64-7,18.52-10.27,27.89-1.5,4.6-8.82,25.59.67,24.3.29,8.41,3.49,16.35,5.09,24.53,1.79,8.54.68,17.47,1.64,26.11a2.89,2.89,0,0,0,3.19,1.9c.64,3,5.18,4.47,6.31.07,7.3-6.94,16.16-11.83,25.13-16.26,4.47-2.13,9-4.33,13.6-6.29-5,6.11-9.52,13-10.81,14.53C530.76,633,526,639.49,522,646.43c-1,1.51-2.11,3.51-1.78,5.15a113.94,113.94,0,0,0-14,21.66c-.21.42-.44.84-.68,1.26-.93.9-1.77,2.11-2.57,3-4.18,4.7-8.63,9.2-12.7,14-13.21,17.56-24.88,36.05-37.75,54-11.38,17.62-23.44,34.8-35.44,52-7.39,10-15.14,19.91-23.34,29.25a3.71,3.71,0,0,0-2,3.7s0,.05,0,.07c.83,6.2-3.44,19.62,5.36,20.82,15.6,1.71,26.23-12.14,33.74-23.87,7.25-10.24,13.8-21.68,20.07-32.79,8-13.68,16.83-26.8,25.21-40.22,12.06-20.59,23.66-41.33,38.58-60.07l.21-.32a19.08,19.08,0,0,1,5.61,11.84c1.32,11,3.24,22.41,10.71,31.07,4.18,5.4,8.73,4,8.92-2.79,2.57-31.28,17.8-54.19,45.32-69.41,6.22-2.06,6.63-9,9.9-13.74,3.83-4.57,8-9.62,13.82-11.51,5.55-1.07,12.06-2.59,17.4-.06-1,13.34-48.68,33.12-52.88,48.8-2.77,7.71-3.81,15.93-6.68,23.62a188.79,188.79,0,0,1-13.78,29.09c-6.34,11.27-16.5,19.27-9.43,33.06,2.35,6.24,6.92,11.12,11.23,16.06,7.65,8.77,15.17,18,24.26,25.35C584.61,828,593.21,840,605.08,847c3.15,1.58,6.1,4.79,9.83,4.42,3.63,4.72,9.05,7.77,13.51,11.63,6.91,5.41,14.12,10.49,21.5,15.29.47,1.78,2.58,2.39,4.11,3.23,5.82,2.25,10.85,7.71,17.07,8.27,6.32,0,12.35-2.38,18.49-3.59,10.09-1.52,20.5-1.27,30,2.86l-.14,0c12.07,5.66,21.07-3,32.17-6.33,9-1.51,9.37-11.47,8.52-18.81-2-9.2-9-16.43-11.26-25.64-4.66-15.09-2.17-31.68-7.71-46.66-5.17-16-17.72-27.93-22.18-44.41,10.33,7.6,16.93,19.11,23.2,30.06,9.55,16.42,13.41,35.16,17,53.58A108.78,108.78,0,0,1,763.11,872c0,11.2,13-1.44,17-3.86,5.25-4.07,20.63-12.89,20-20-.68-5.45-4.15-10-5.8-15.2-2.35-7.3-3.27-14.91-4.67-22.42-2.31-10.77-4.95-22.13-9.4-32.33C774.68,767.07,767.26,757,760,747c-3.89-4.75-8.29-9-12.27-13.72-4.61-5.36-8.5-11.52-13.11-16.93-12.83-13.9-33.74-26.13-32.92-47.48,7.32,3.62,13,9.81,19.43,14.73a147.63,147.63,0,0,1,14.09,11.48c18.16,18,32.26,39.21,42.91,62.42A178.23,178.23,0,0,1,788.92,789c2,6.93,4.51,13.67,5.84,20.84a87.12,87.12,0,0,1,1.29,16.29,4.42,4.42,0,0,0,1.38,3.9c6.79,4.32,14.35-11.69,17.76-16.12,3.07-5.15,9.51-5.9,13.3-10.34,3.3-2.83,4.46-7.23,6-11.14a137.78,137.78,0,0,0,5.5-17.25c0-.25.07-.53.12-.82,1.83-1.31,1.65-3.06.83-4.89a10.45,10.45,0,0,0,0-1.67c5.92-.58,12.94-18.82,15.39-22.81,2.34-4.52,5.39-8.9,5.72-14.14.38-9.31-6.77-16.28-11.67-23.45C847.35,702.54,845.73,696.94,844.54,691.38Zm-41.56-48c-8.7-3.91-17.21-8.24-26.12-11.67-10.19-4-31.74-15.57-39.34-26.76,7.67,5.18,15.66,10,24.6,12.53,9.48,3.34,18.22,8.27,27.22,12.65,6.42,3.3,11.23,8.71,15.92,14.12ZM797.38,698c-6.6-4-13.79-6.95-20.21-11.3-8-5.45-14-13.12-21-19.66-4.55-4-9.26-7.73-13.77-11.75-3.9-4.1-9.13-7.77-11.75-12.88a48.66,48.66,0,0,1,4.19,3.42c9.6,10.68,22.12,17.11,33.57,25.53,15.11,7.67,24.25,12.73,30,27.35C798,698.51,797.73,698.25,797.38,698ZM713.14,813.19c7.74,10.81,4.29,25.17,6.79,37.62A55.77,55.77,0,0,1,713.14,813.19ZM539.7,566.55a55,55,0,0,1,38.2-9c-11.47,9.31-27.61,10.57-41.87,11C537.27,567.91,538.49,567.24,539.7,566.55Zm193.48-49.68a116.7,116.7,0,0,1-12.35-.61c6.26-3.53,12.78-7.25,20.12-7.54,11.22,0,22.53,2.18,32.48,7.54C760,516,746.6,516.84,733.18,516.87Zm43.71,57.28c-8.22-.79-16.06-3.1-23.8-5.85-9.4-2.44-19-6-27.14-11.34,10.19-.92,20.56,1.11,30.52,3.26a92.31,92.31,0,0,1,27.66,15.16ZM558.2,608a5,5,0,0,0,1.43-.78,54,54,0,0,1,6.86-1.2c-5.84,6.49-13.45,11-19.71,17.06-1.67,1.5-3.27,3.07-4.87,4.63C546.79,620.7,551.94,613.69,558.2,608Zm-51.76,86.76c-13.16,17.62-24.2,36.65-35.18,55.67C462.94,763.9,454,777,446.07,790.64c-7.12,12.57-14.23,24.86-22.67,36.65-5.67,8.69-13.89,18.8-25.39,17.83-.48-4.63.09-9.3,0-14,2.69-2.87,5.23-5.89,7.77-8.89,8.81-11.19,17.53-22.18,25.28-34.23,11-14.25,19.83-29.62,30.28-44.28,11.23-15.87,21.74-32.23,33.38-47.85,3.12-3.77,6.36-7.17,9.63-10.72a17.54,17.54,0,0,0,3,2.91c.93.62,1.81,1.23,2.66,1.83A42.44,42.44,0,0,1,506.44,694.79Zm90.67,40.4a63.8,63.8,0,0,1,15.4-14.63c3-1.82,6.11-3.53,8.67-6,4.51-4.23,7.07-10,11.34-14.45,4.11-4,8.24-8.93,14.13-10-2.88,7.57-9,13.33-13.7,19.8-6,8.05-12.88,15.34-18.67,23.52C599.56,755.27,594,781.61,582.11,805,571.16,781.21,583.8,755.19,597.11,735.19Zm18.95,104.64c-4-13.25-2.7-21.72,5.45-32.9,7-11,12.8-22.69,18.49-34.42,2.84-4.49,4.2-10.71,9.07-13.44,1.16-.55,2.45-1.13,3.38.09,3.36,3.41.26,8.77-1.37,12.39C639.13,794.16,625.53,816,616.06,839.83Z"/><path d="M581.36,360.18c-.93-12.45-1.13-25.49-2.63-38-1.85-12.52-7.32-25.87-20-30.6a73.2,73.2,0,0,0-25.38-7.79c-10.87-1.79-21.64-4.5-32.67-5,13.71-5.75,29.16-2.51,43.23.23,3.94.12,12.59,6.57,13.33-.8-3.41-20.52-20.39-36.35-37.9-46.11-11.16-6.65-29.39-7.68-41.65-3.28-13.68,5.09-27.11,11.7-36.83,22.89a5.51,5.51,0,0,0-.72.73,3,3,0,0,0-.79-.94,29.22,29.22,0,0,1-8.31-10c-2.61-5.27-1.63-11.36-3.59-16.82a42.59,42.59,0,0,0-7.88-14.1c-11-12-26.52-17.54-38.86-28-6.16-4.8-11.13-10.8-16.39-16.49C353.08,156,337.37,153,322.69,152.64a90.45,90.45,0,0,1-14-1c-4-.35-8.78-.68-11.81,2.41-2.3,1.73-2,5.85,1.14,6.27,7.39-.5,14,3.18,20,7.16a65.07,65.07,0,0,1,19.69,17c3.79,4.57,7.67,9.54,11.38,14.32,2.49,3.27,5.43,6.73,5.53,11-4-3.64-6.94-8-10.52-12.11-10.86-11.74-23.25-22.27-37.23-30.1-5.45-3.46-10.88-6.94-16.51-10.11-2.38-1.2-4.87-2.63-7.63-2.56-10.77,1.56-20.08,8.24-29.87,12.6-7.62,3.69-15.89,6.25-23.07,10.8-1.81,1-3.94,2.63-3.33,5,1.48,3.91,7.45,3.07,10.86,4.27,11.09,1.85,21.61,7.67,31.46,13,11.81,5.65,23.31,10.92,34.45,18.1,9.23,5.41,18.54,11.33,25.14,19.93C314.84,232,300.77,226.61,288,218.63a182.37,182.37,0,0,0-39.75-19.86c-8.7-2.5-17.32-6.75-26.46-7.06-5.58-.05-7.9,6.22-11,9.88-7,9.68-11,21.61-15.82,32.51a39.21,39.21,0,0,1-4.08,6.4,4.07,4.07,0,0,0-1.41,3.38,7.56,7.56,0,0,0-4.94,4.37c-5.64,16.95-2.72,35.57-10.72,52.06-1.4,3.67-5.39,6.86-6.8,10.58A3.19,3.19,0,0,0,170,314.5c8.19-1.51,16.18-4.3,24.37-5.95,22.5-2.81,45.38-2.34,68-1.06,17.2,1.06,34.57,1.32,51.62,4.18-4,1.36-8,2.66-11.93,4.05-16.47,5.95-34.76,6.92-51.43,12.38a144.24,144.24,0,0,0-57.9,37.79c-6.92,6.72-14,13.41-20.08,20.88a5.34,5.34,0,0,0-.61,6.88c5.18,7.5,11,14.61,15.6,22.48,5.25,8.91,9,19.92,17.63,26.13a5.61,5.61,0,0,0-1.25,3.31c.86,8.32,5.84,15,10.36,21.87,6.43,9.08,7.43,21.62,15.16,30,3,4.64,8.13,6.27,12.81,8.63,5.24,2.19,5.43-4.44,6-7.87a92.32,92.32,0,0,1,2.67-9.68c.36,10.57,1.59,21.48,7.25,30.62,3.66,5.48,8,11.58,14.44,13.81a4.25,4.25,0,0,0,5.27-3.83,47.52,47.52,0,0,1,4.54-11.84c3.8-7,8.69-13.27,13.72-19.47,7.53-9.94,14.28-20.95,24.47-28.4-1.4,9.49-6.79,18.3-12.76,25.7a179.69,179.69,0,0,0-13.17,13.86c-4.25,4.21-6.92,9.55-9.17,15-.84,2.51.29,5,1.58,7.13,2.4,4.06,5.1,7.91,7.86,11.73,7.19,10.39,17.19,18.37,25.29,28,1.58,1.88,3.09,3.84,4.54,5.82,1.67,2.1,3,5.13,6,5.46,8.33-.28,13.34-9.66,21.74-10.35a2.92,2.92,0,0,0,2.27-2.62c1.53-.94,3-2.06,4.17-2.65,9.15-5.26,14.06-12.53,16.51-22.7,3.31-12.65,2.2-26,.47-38.8-1.5-9.72-1.43-19.65-3.75-29.24-1.36-6.17-2.68-12.36-3.88-18.55-1-5.47-2.15-11.32,0-16.67,8.91,7.09,6.95,25,8.93,35.5,1.4,10.87,5.19,21.31,5.26,32.39.49,11-1.53,21.89-3.3,32.66a28.32,28.32,0,0,0-.78,9.16c.19,2.46,1.77,5.41,4.64,5a27.83,27.83,0,0,1,9.79-.64l1.54.14a2.82,2.82,0,0,0,.51,1.9c2.06,9,1.54,18.38,1.78,27.57.54,12.06.57,24.13.55,36.2.86,43.5-.74,87-3.4,130.38-1,14.54-2.38,29.71-4.75,44.22-.09,4.27-4,15.7-2,20.91a3.69,3.69,0,0,0-.08,1.68c.9,3,3.76,2.39,6.07,1.61,5.41.2,8.81-2.13,10-7.44,4.55-10.75,5.61-23,7.27-34.51,8.75-64.66,8.37-130.08,8.23-195.21-.13-10.57-.06-21.14,0-31.71,2.59-2.4,4.91-5.86,7.08-10.83,4-14.51,3.75-29.63,2.31-44.5-.42-15.61-3.93-31.51-8.95-46.32-3.39-9.26-7.54-17.74-11.69-26.65,2-1.46,1.09-5.33,1.16-7.71-.22-4.59-.26-9.18-.26-13.78a102.08,102.08,0,0,1,11.89,36.13c1.75,9.62,3.39,19.31,6.25,28.67,1.88,5.5,4.27,10.84,5.18,16.62,3.13,14.93,2.8,30.48,2.21,45.67,0,2.89-1.83,6.78.28,9.34a3.78,3.78,0,0,0,4.29.67c2.75-1.07,5.49-2.17,8.25-3.2,11.33-3.77,21.33-10.79,30.37-18.45,2.44-2.34,5.16-4.61,6.71-7.66,5.77.68,10.74-3.67,15.29-6.69,3.78-2.9,8.16-4.86,11.81-7.92,8.92-7.27,18.21-11.36,20-24.1.73-13.75-4.49-27-10.46-39.13a233.16,233.16,0,0,0-26-46.57c-8.49-12.44-16.8-25.13-27.24-36.05,9.16,4.37,18.49,9.05,26.39,15.66,10.79,7.69,21.12,16,29.63,26.22,12.41,13.54,23.31,28.4,30.75,45.35,1.73,6.62,7,6.56,8.44-.13,4.79-15.55,12.24-30.83,14.82-47.06-.41-11.66-2.24-24.47-10.18-33.54,4,3,6.53,7.46,9.37,11.41a3.2,3.2,0,0,0,5-1.62A16.24,16.24,0,0,0,581.36,360.18ZM410.25,716.47c-1.2,19.84-3.28,39.66-5.81,59.39-1.9,12.42-2.64,25.48-8.42,36.82-.85.1-1.94.16-3.06.28,1.24-13.58,4.48-27,5.48-40.65,2.82-30,3.76-60.15,4.94-90.24.82-24.8.24-49.6.21-74.41-.63-17,.4-34.26-2.17-51.12-.09-.43-.19-.9-.3-1.36A31.34,31.34,0,0,0,412.5,554C412.62,608.19,413,662.37,410.25,716.47Zm-8.08-309.79c0,1.52.08,3,.13,4.56-5.15-10.17-10.52-20.56-11.33-32.05A73.72,73.72,0,0,1,402.14,391C402.14,396.22,402.1,401.45,402.17,406.68ZM508.48,314.8c-8.87-2.31-18.32-4.31-27.49-3.14-3.3.5-4.13,4.21-2,6.51,2.28,2.83,5.9,4,9.21,5.17,7.23,2.72,14.86,3.92,22.23,6.09,10.68,4.14,21.56,7.86,31.78,13.08,19.49,10.43,28.94,23.2,28.75,45.79-2.83,13.94-8.59,26.79-13,40.4C548.6,409.2,534.73,392.58,520,377c-6.86-6.91-14.76-12.56-22.54-18.36-9.63-8.07-21.14-13.44-32.5-18.61-2-.81-3.92-2.26-6.15-2.42-2.67,0-4.09,3.12-2.95,5.36,3.08,6.35,8.83,10.84,13.16,16.3,7.56,9.27,14.19,19.25,20.93,29.13a208.18,208.18,0,0,1,22.61,39.75c6.58,15,21.47,40.89,4.14,53.4-6.24,4.42-12.14,9.44-18.76,13.32-4,2.53-7.62,6-12.21,7.24.24-1.62.38-3.27.53-4.89A112.46,112.46,0,0,0,484.77,460c-1.57-9.24-3.19-18.57-6.7-27.3-1-2.32-2.08-4.57-3.23-6.79a2.9,2.9,0,0,0,.24-1.6c-1.28-6-1.6-12.88-5.68-17.73h0c-7-13.68-13.16-28.13-23.85-39.26-6-5.54-13.25-13.3-21.33-17a4.08,4.08,0,0,0-4.48-1.54,19.6,19.6,0,0,0-3.49-.52c-4.32,1-3.13,7.19.77,6.52a23.68,23.68,0,0,0,4,8.25c9,12.12,18.62,23.73,27.64,35.83,7.92,10.47,16.69,20.57,22.19,32.67,4.95,10.66,6.69,22.57,8.6,34.13,2.3,12.32,1.8,24.69-.17,37.1-2,6.44-8.58,10.55-13.93,14.33-7.49,6.17-16.3,10.06-25.43,13.19,1-16,1.26-32.43-1.81-48.2-1-6.45-3.26-12.53-5.57-18.59-3.24-10.49-4.81-21.4-6.85-32.17-2-14.89-8.47-29.53-16.95-42-3.89-4.69-16.4-23.32-22.81-15-4.83,12.38,8.87,34.86,14.32,46.6,5,11.15,10.45,21.58,14.41,33.44a164.65,164.65,0,0,1,7.53,44.56c.77,9.63,1.41,19.37-.44,28.92-.83,6.08-1.74,12.37-6.49,16.75-6.79,8.59-21.1,1.54-30.55,3.84,1.08-9.85,3.15-19.61,4.08-29.53,1.1-13-1.29-26-4.41-38.57-3.1-13.33.18-38.45-13.54-45.75-10.05-4.13-10.42,12-9.34,18.35,2.7,15.75,7.05,31.17,7.75,47.23,2.3,16.7,4.73,34.59-2.67,50.42-2.42,5.35-7.7,8.28-12.3,11.53-1.79,1.36-5.31,2.2-6.38,4.16-5.82,1.88-10.28,6.68-15.85,9.32-12.14-17.64-30.85-30.32-40.38-49.89,5.77-15.53,21.78-23.74,29.15-38.33,2.08-4.17,7.34-14.27,6.2-20.2a3,3,0,0,0-1-4.3c-3.48-2.68-7.76-.16-10.43,2.45a91,91,0,0,0-18.67,21.07c-9,12.52-20.38,24.06-24.49,39.32-12.11-9.11-15.18-24.88-15.17-39.23,6.34-5.43,9.63-13.59,14.53-20.23a59.2,59.2,0,0,1,13.16-14.16,177.18,177.18,0,0,1,26.47-17c11.27-5.36,21.12-13.35,27-24.55,10.53-16.24-12.48-12.73-21-8.54-15,6.58-24.8,20.27-34.82,32.64-7.05,8.11-13.39,16.94-17.45,26.93-1.48,1-2.88,2.32-4,3.08-11.69,8.47-16.73,20.09-19.21,34.06-11-3.95-13.55-16.62-17.66-26.27-3.88-9.28-11.83-16.59-14-26.61,13.59-13,26.92-26.33,40.89-38.94,10.53-10.61,21.64-20.9,35.35-27.27,5.86-3,11.63-6.24,17.94-8.2,11.08-4.26,23.31-2.62,34.49-6.24,9.28-3.81,19.63-11.55,19.43-22.12a2.86,2.86,0,0,0,1.45-2.53,3.16,3.16,0,0,0-2.72-3.11,3.33,3.33,0,0,0-4.33-.27c-24.46-.85-47.6,10.54-67.79,23.55a102.64,102.64,0,0,0-30.64,27.34c-2.87,3.63-5.73,7.29-8.38,11.08-1.13,1.42-2.11,3.46-1.36,5-8.74,8.35-17.29,16.93-26.14,25.17-3,2.91-6.09,5.65-9.1,8.51-.87-1.08-2.4-1.89-3.24-3.09-5.09-6-8.74-13.87-12.51-20.88-4.65-8.26-10.66-15.64-16.09-23.38,10.83-12.49,23-23.93,35.22-35.1a153.57,153.57,0,0,1,41.4-22.06c11.32-3.7,24.1-4.89,35.78-7.79s22.77-6.92,33.95-11a3.19,3.19,0,0,0,1.46.61c2.6.2,3.63-1.68,3.42-3.62a3,3,0,0,0,.12-.81c-.16-2.51-1.75-3.16-3.6-3-13-3.93-27.51-4.35-41-5.66-13.62-.08-27.12-1.56-40.76-1.82-22.13-.21-44.72-.79-66,6,10.14-16.7,7.49-36.91,12.49-55.11a2.92,2.92,0,0,1,.53-.94,3,3,0,0,0,1.78.63c10-3.32,21.14-2.93,31.24.09,6.17,2.24,11.39,6.36,17.17,9.36,4.34,2.13,8.83,4,13.28,5.84,11,4.78,23.12,2.2,34.67,3,7.18.62,14.63,3.64,21.65,6a3.17,3.17,0,0,0,4.1-1.62c1.5-4.16-3.88-4.81-6.66-5.88-5.1-1.51-10.1-3.47-15.37-4.32-11.26-1.74-23.09,1.48-34-2.17-5.11-2-10.19-4.16-15.13-6.53-5.65-3.09-10.89-7-16.94-9.28-8.58-2.95-17.88-3.37-26.87-2.69a18.5,18.5,0,0,0-2.57.49c4.33-5.9,8.28-17.85,9.64-20.58A89.38,89.38,0,0,1,221.36,198c5.24-.36,10.23,2.35,15.27,3.54a180.29,180.29,0,0,1,43.15,19.24,211.54,211.54,0,0,0,34.53,18.13c5.53,2.34,10.7,5.48,16.33,7.55a4.35,4.35,0,0,0,5.19-1.37c3.1-4.49-3.27-11-6.13-14.4-16.46-15.83-37.65-25.67-58-35.47-10.95-6-22.07-12-34.56-13.92,8.36-3.84,17-7.15,25.11-11.41a104.52,104.52,0,0,1,13.44-6.38c2.56-.86,5.22-2.73,8-2.15,21.87,11.49,43.44,25.27,59.13,44.69,3.65,3.88,6.76,9.94,12.52,10.59,3.56.23,5.58-3.57,5.45-6.73,0-6.12-3.82-11.17-7.48-15.73-5.95-7.48-11.62-15.27-18.42-22-5.72-5.54-12.72-9.42-19.49-13.51,15.18.23,31.89,1.19,44.05,11.45,4.57,4.61,8.48,9.87,13.52,14,8.87,8.29,19.58,14.09,29.77,20.51,30.95,19.73,10.21,33.57,32.69,51.69a2.91,2.91,0,0,0,3.68.08,3.06,3.06,0,0,0,2.83,1.95,3.16,3.16,0,0,0,2.71-1.55,71.14,71.14,0,0,1,12.51-11.26c8.65-5.23,18.24-10,28.14-12.48,7.26-1.34,14.64-.43,21.91.72,6.87,1.53,12.69,5.85,18.48,9.65a64.92,64.92,0,0,1,24.4,30.7c-19.7-5.17-41.24-8.07-59.78,2.26-1.81.63-3.66,2-3.34,4.16,1.26,5.36,12,3.84,16.37,4.57a103.64,103.64,0,0,1,11.23,1.62c14.84,2.91,29.78,3.73,43.24,11.31,18.92,9.74,14.7,37,16.9,55C555.77,335.81,532.72,322.88,508.48,314.8ZM525,328.25c-4.23-1.41-7.84-2.88-12.25-4.57-7-2.28-14.47-3.28-21.46-5.84A90.17,90.17,0,0,1,525,328.25Zm-62.72,78.06c-7.86-10.62-16.64-20.69-24.25-31.44-4.22-5.42-9.15-10.55-12.61-16.51,7.35,4.59,13.5,11.14,19.39,17.47C451.83,385.16,457,395.81,462.31,406.31ZM254.76,480.48a27.58,27.58,0,0,1,3.58-4.76A47.72,47.72,0,0,1,254.76,480.48Zm24.78-31.87c3.4-4.65,7.21-9,10.78-13.5,1.94-2.44,3.86-4.89,5.88-7.25,9.37-11.56,22.28-23.65,38.27-22.87a50.22,50.22,0,0,1-23.05,23.2A184.3,184.3,0,0,0,279.54,448.61ZM352.1,343.47c0,4.71-2.53,7.52-6.76,11.07-9,8-21.7,6.44-32.79,8.5-16.38,3.42-31.61,11.68-45.27,21.15-1.67,1.34-3.31,2.71-4.94,4.09,1.34-1.6,2.69-3.17,4.08-4.72,8.74-10,20.3-16.56,31.56-23.38C314.48,350.62,332.7,343.16,352.1,343.47Z"/></g></svg>