<?xml version="1.0" standalone="no"?>
<!DOCTYPE svg PUBLIC "-//W3C//DTD SVG 20010904//EN"
 "http://www.w3.org/TR/2001/REC-SVG-20010904/DTD/svg10.dtd">
<svg version="1.0" xmlns="http://www.w3.org/2000/svg"
 width="1280.000000pt" height="1280.000000pt" viewBox="0 0 1280.000000 1280.000000"
 preserveAspectRatio="xMidYMid meet">
<metadata>
Created by potrace 1.15, written by Peter Selinger 2001-2017
</metadata>
<g transform="translate(0.000000,1280.000000) scale(0.100000,-0.100000)"
fill="#000000" stroke="none">
<path d="M6336 12665 c-18 -230 -54 -383 -124 -524 -26 -53 -107 -186 -180
-296 -148 -221 -180 -277 -211 -380 -27 -86 -29 -239 -6 -329 44 -169 192
-330 371 -406 64 -27 65 -27 33 -34 -17 -3 -57 -6 -88 -6 -157 0 -561 -64
-797 -126 -77 -20 -148 -39 -159 -41 -20 -4 -20 1 -20 259 -1 275 -14 412 -66
671 -11 54 -18 101 -16 103 4 5 129 -288 294 -691 52 -126 98 -234 103 -239
12 -12 129 111 169 177 60 102 83 180 89 301 6 129 -6 192 -55 295 -43 91
-141 196 -393 420 -339 301 -471 457 -563 666 -10 23 -16 30 -13 15 38 -197
46 -267 47 -392 0 -158 -24 -283 -93 -478 -71 -203 -98 -291 -113 -362 -45
-210 13 -420 154 -558 97 -95 225 -158 376 -184 l70 -12 -140 -48 c-261 -90
-576 -235 -792 -364 l-82 -50 -11 57 c-53 263 -158 557 -296 834 -30 60 -51
106 -46 103 11 -6 301 -379 502 -644 68 -89 128 -161 133 -159 18 6 88 132
109 197 28 90 35 253 14 342 -26 114 -72 194 -156 278 -89 88 -154 128 -490
299 -374 189 -480 260 -628 416 l-88 93 47 -94 c63 -125 104 -242 130 -366 22
-111 22 -62 3 -663 -6 -166 -4 -188 16 -262 26 -97 76 -186 146 -262 61 -66
135 -113 236 -149 65 -23 88 -26 219 -26 l145 -1 -132 -90 c-352 -239 -669
-532 -941 -870 -112 -139 -297 -411 -383 -564 -51 -90 -54 -93 -69 -74 -147
181 -403 403 -682 592 -52 35 -98 68 -103 72 -16 14 457 -178 892 -362 29 -12
56 -19 60 -15 4 4 6 51 6 104 -3 176 -71 329 -201 452 -81 78 -181 131 -280
150 -44 9 -129 11 -285 6 -625 -17 -719 -18 -800 -7 -97 14 -224 46 -288 73
-55 24 -47 15 50 -48 110 -71 242 -185 304 -260 75 -91 149 -217 254 -434 50
-102 109 -213 132 -247 120 -181 341 -296 538 -278 127 11 234 51 349 131 35
24 63 41 63 39 0 -3 -29 -63 -64 -133 -110 -222 -213 -492 -281 -744 -20 -73
-38 -139 -40 -146 -3 -9 -22 -1 -62 26 -195 132 -411 236 -743 358 -80 29
-134 53 -120 54 35 0 914 -113 969 -126 23 -5 23 -4 17 41 -35 231 -234 450
-462 509 -150 39 -265 18 -696 -123 -393 -128 -471 -145 -686 -145 -95 -1
-164 -4 -155 -8 10 -3 70 -25 133 -48 255 -93 396 -196 612 -450 246 -288 350
-367 532 -405 143 -29 254 -13 387 56 84 44 187 131 233 198 16 23 31 40 32
38 2 -2 -5 -44 -16 -93 -51 -235 -90 -615 -90 -879 l0 -133 -91 30 c-225 72
-470 118 -760 143 -101 9 -185 17 -186 19 -3 3 386 57 737 102 151 19 277 37
280 40 11 11 -68 140 -122 199 -138 150 -332 225 -533 203 -122 -13 -239 -71
-520 -258 -389 -259 -568 -347 -781 -383 l-79 -14 90 -7 c358 -28 510 -86 855
-327 236 -165 348 -210 515 -210 115 1 193 18 276 62 118 63 240 203 294 336
l22 54 7 -32 c3 -17 6 -55 6 -83 0 -156 62 -551 122 -783 22 -87 42 -167 45
-178 4 -20 -1 -20 -259 -20 -279 -1 -383 -11 -640 -61 -72 -14 -132 -23 -134
-21 -5 4 266 120 661 282 143 59 264 111 269 115 5 5 -23 40 -63 79 -78 77
-188 139 -296 166 -75 19 -233 19 -305 0 -120 -32 -177 -70 -321 -214 -74 -75
-195 -203 -268 -286 -162 -184 -307 -319 -426 -397 -86 -58 -184 -108 -207
-108 -6 0 -9 -2 -6 -5 2 -3 49 5 104 17 83 19 131 22 294 23 184 0 201 -2 305
-29 61 -16 177 -53 258 -82 231 -84 294 -99 427 -99 126 0 185 14 295 68 150
74 273 263 309 472 l12 70 48 -139 c90 -262 226 -559 355 -775 l59 -100 -56
-11 c-256 -52 -527 -146 -800 -279 -78 -39 -142 -68 -142 -66 0 6 267 214 563
440 136 104 246 193 244 198 -6 18 -132 88 -197 109 -90 28 -253 35 -342 14
-114 -26 -194 -72 -278 -156 -88 -88 -125 -149 -298 -488 -192 -378 -261 -483
-416 -629 l-94 -88 107 52 c124 61 293 117 404 134 56 9 134 10 275 3 108 -4
278 -8 377 -9 214 0 276 14 396 93 189 123 276 306 267 558 l-4 112 88 -130
c160 -235 289 -392 496 -602 284 -287 588 -523 917 -711 55 -31 103 -60 107
-64 4 -3 -29 -38 -73 -76 -150 -130 -329 -339 -499 -585 -110 -159 -117 -168
-95 -115 9 22 35 85 57 140 21 55 103 252 180 438 77 186 137 341 133 345 -13
14 -190 5 -255 -12 -166 -45 -333 -180 -403 -326 -54 -113 -60 -166 -53 -422
17 -625 18 -719 7 -800 -14 -96 -46 -224 -72 -285 -10 -24 -17 -43 -15 -43 2
0 31 42 64 93 171 260 305 368 670 544 300 144 403 226 483 385 73 146 85 282
37 436 -25 83 -48 129 -104 209 -24 35 -41 63 -38 63 2 0 50 -23 107 -51 132
-67 300 -139 451 -194 124 -44 371 -118 439 -130 20 -4 37 -9 37 -11 0 -2 -24
-41 -54 -86 -131 -202 -224 -395 -342 -718 -29 -80 -53 -136 -54 -125 0 34
114 919 126 974 5 23 4 23 -43 16 -228 -33 -448 -234 -507 -461 -39 -150 -18
-264 123 -695 128 -391 145 -471 145 -686 1 -95 2 -173 3 -173 0 0 10 28 21
63 50 156 117 299 191 402 52 73 171 195 291 297 288 246 367 350 405 532 29
143 13 254 -56 387 -44 84 -131 187 -198 233 -23 16 -40 31 -38 32 2 2 46 -5
98 -16 251 -52 487 -78 780 -87 l227 -6 -25 -71 c-69 -204 -123 -483 -148
-778 -9 -100 -17 -184 -19 -185 -3 -3 -44 294 -97 702 -22 170 -43 312 -45
315 -11 11 -140 -68 -199 -122 -149 -136 -224 -331 -204 -528 14 -128 57 -215
279 -555 75 -116 153 -237 172 -270 98 -165 165 -333 192 -481 8 -43 15 -68
15 -54 3 80 24 258 41 335 37 180 87 282 277 563 138 204 162 247 198 357 47
140 32 327 -36 456 -62 116 -212 248 -334 295 -39 14 -44 19 -29 25 11 4 45 8
77 8 178 2 542 59 804 126 97 25 179 45 182 45 3 0 4 -88 3 -196 -5 -251 16
-472 69 -738 11 -54 18 -100 16 -102 -4 -5 -129 288 -294 691 -52 127 -98 234
-103 239 -5 5 -39 -23 -79 -63 -120 -121 -181 -274 -181 -451 0 -237 65 -335
445 -673 339 -302 483 -472 566 -667 11 -25 17 -34 15 -20 -38 196 -47 268
-47 391 0 75 2 147 5 160 30 136 68 269 112 391 75 205 95 287 101 403 6 117
-15 216 -70 320 -45 86 -144 181 -242 231 -95 49 -130 61 -227 77 l-73 13 139
48 c262 90 560 228 783 360 88 52 93 54 97 33 57 -290 156 -577 303 -871 31
-63 46 -102 35 -91 -22 22 -229 288 -461 593 -85 111 -159 201 -164 199 -18
-6 -88 -132 -109 -197 -28 -90 -35 -253 -14 -342 26 -114 72 -194 156 -278 87
-87 138 -118 480 -292 376 -191 490 -267 638 -423 l88 -93 -47 94 c-63 125
-104 242 -130 366 -22 111 -22 62 -3 663 6 166 4 188 -16 262 -28 105 -79 192
-161 276 -119 120 -270 172 -476 165 l-111 -4 112 76 c548 370 999 852 1330
1423 l68 117 61 -67 c170 -190 399 -384 660 -557 48 -32 87 -59 87 -61 0 -5
-328 128 -668 270 -155 65 -286 114 -290 111 -4 -4 -6 -51 -6 -104 3 -176 71
-329 201 -452 81 -78 181 -131 280 -150 44 -9 129 -11 285 -6 625 17 719 18
800 7 96 -14 224 -46 286 -72 23 -10 42 -17 42 -15 0 2 -37 27 -82 57 -263
171 -383 317 -556 680 -140 292 -231 407 -382 480 -113 54 -146 63 -250 63
-148 1 -265 -37 -396 -128 -35 -25 -64 -43 -64 -40 0 2 24 53 54 112 118 236
251 591 306 822 13 52 24 96 25 98 2 2 44 -24 96 -57 186 -121 471 -255 739
-347 69 -24 114 -44 100 -44 -37 0 -863 106 -974 125 l-28 5 7 -45 c19 -127
80 -242 185 -346 119 -119 258 -179 413 -179 104 0 224 30 557 138 393 129
473 146 687 146 94 1 170 2 169 3 -1 1 -49 19 -106 38 -292 101 -442 213 -706
525 -195 232 -302 308 -478 345 -144 29 -254 13 -389 -57 -79 -41 -190 -137
-246 -213 -22 -29 -22 -29 -17 -5 61 262 106 663 106 951 l0 137 91 -30 c224
-71 469 -118 755 -143 98 -9 179 -17 181 -19 2 -1 -54 -10 -125 -20 -70 -10
-188 -26 -262 -36 -74 -10 -243 -33 -374 -50 -132 -17 -242 -33 -245 -36 -11
-10 64 -135 112 -190 166 -186 419 -261 643 -190 84 27 247 120 462 264 332
223 529 318 738 356 43 8 68 15 54 15 -81 3 -258 24 -338 41 -173 36 -294 97
-574 286 -187 127 -234 153 -344 190 -140 47 -326 32 -455 -37 -118 -63 -240
-201 -293 -332 -23 -58 -23 -58 -30 -26 -3 17 -6 55 -6 83 0 156 -62 551 -122
783 -22 87 -42 167 -45 178 -4 20 1 20 249 20 152 0 293 5 353 13 109 15 307
48 370 62 67 16 73 10 15 -16 -67 -31 -741 -311 -827 -345 -35 -13 -63 -28
-63 -32 0 -4 31 -39 70 -77 120 -119 274 -180 450 -180 109 0 176 16 270 61
78 39 238 195 483 470 245 275 404 403 617 493 8 3 3 4 -12 1 -289 -55 -463
-60 -641 -19 -62 14 -164 44 -227 66 -203 71 -291 98 -362 113 -278 59 -540
-60 -665 -300 -44 -86 -59 -132 -78 -235 l-11 -65 -28 85 c-88 263 -244 610
-374 827 -58 97 -60 103 -39 107 290 57 577 156 871 303 63 31 102 46 91 35
-23 -23 -294 -233 -593 -461 -111 -85 -201 -159 -199 -164 6 -18 132 -88 197
-109 90 -28 253 -35 342 -14 96 22 202 79 271 144 73 70 139 176 262 421 241
478 321 595 530 774 23 19 3 12 -80 -28 -245 -118 -392 -150 -655 -141 -585
20 -538 20 -627 -4 -105 -28 -191 -79 -276 -161 -120 -119 -172 -270 -165
-476 l4 -111 -93 137 c-234 345 -534 669 -868 938 -140 112 -413 298 -563 383
l-93 52 62 57 c34 31 70 61 79 68 30 21 233 253 308 351 41 53 108 147 150
207 41 61 79 114 84 120 10 11 -105 -276 -269 -668 -63 -153 -112 -281 -108
-285 4 -4 50 -6 103 -6 176 3 329 71 452 201 78 81 131 181 150 280 9 44 11
129 6 285 -17 625 -18 719 -7 800 14 97 46 224 73 288 24 57 15 47 -60 -65
-170 -255 -302 -360 -676 -539 -98 -47 -208 -106 -246 -131 -188 -125 -302
-339 -286 -537 11 -131 51 -238 132 -355 24 -35 41 -63 39 -63 -3 0 -59 27
-124 59 -224 113 -471 207 -736 281 -82 23 -156 43 -162 45 -9 3 6 33 41 87
134 206 246 444 352 748 24 69 44 114 44 100 0 -40 -106 -867 -125 -974 l-5
-28 48 7 c227 33 448 235 506 461 39 149 19 260 -122 694 -130 397 -146 474
-147 687 0 94 -1 170 -2 169 -1 -1 -18 -49 -38 -106 -101 -294 -208 -436 -545
-723 -204 -174 -291 -297 -324 -459 -30 -147 -15 -255 56 -391 41 -79 137
-190 213 -246 29 -22 29 -22 5 -17 -236 55 -565 94 -856 103 l-231 6 29 90
c72 223 118 468 143 758 9 101 17 185 19 186 3 3 44 -294 97 -702 22 -170 42
-311 44 -314 10 -10 138 65 189 111 191 170 266 438 187 662 -25 71 -113 225
-231 401 -258 388 -347 568 -383 781 l-14 79 -7 -90z"/>
<path d="M10765 10859 c-98 -86 -249 -188 -336 -228 -96 -43 -254 -87 -444
-122 -319 -59 -432 -105 -550 -224 -87 -87 -129 -159 -157 -267 -32 -129 -16
-297 42 -432 l19 -45 58 26 c199 91 459 268 711 485 56 49 102 86 102 83 0 -7
-246 -332 -467 -617 -84 -108 -153 -199 -153 -202 0 -14 146 -49 225 -53 116
-6 215 14 320 66 152 75 246 185 301 351 31 93 47 160 119 505 68 324 144 529
249 681 25 35 44 64 43 64 -1 0 -38 -32 -82 -71z"/>
<path d="M1950 10755 c202 -240 268 -385 335 -743 67 -355 108 -458 236 -583
151 -147 331 -198 546 -153 74 15 170 48 186 63 11 11 -93 208 -180 341 -97
148 -193 275 -315 417 -54 62 -95 113 -92 113 6 0 319 -237 617 -467 108 -84
199 -153 202 -153 13 0 47 147 52 225 13 218 -92 437 -264 551 -78 51 -208 94
-443 144 -107 22 -238 50 -290 61 -249 54 -458 134 -602 231 l-66 45 78 -92z"/>
<path d="M2810 3525 c-110 -25 -224 -88 -305 -169 -115 -116 -147 -201 -235
-620 -96 -460 -154 -628 -276 -804 l-44 -63 97 82 c240 203 401 274 768 340
321 58 432 104 555 229 87 88 133 171 156 282 26 122 8 287 -46 413 l-19 45
-38 -15 c-175 -73 -514 -305 -753 -516 -44 -38 -80 -67 -80 -64 0 7 225 304
467 618 84 109 153 200 153 202 0 2 -30 14 -67 26 -88 28 -243 34 -333 14z"/>
<path d="M9770 3533 c-55 -10 -141 -34 -184 -53 l-45 -19 15 -38 c72 -174 278
-478 496 -730 49 -57 86 -103 83 -103 -7 0 -332 246 -617 467 -108 84 -199
153 -202 153 -14 0 -49 -146 -53 -225 -10 -183 54 -354 181 -480 123 -122 189
-145 741 -261 324 -67 529 -142 682 -249 l66 -47 -44 51 c-235 273 -303 416
-379 809 -67 350 -103 437 -232 564 -86 85 -160 127 -269 153 -60 14 -181 18
-239 8z"/>
</g>
</svg>
